<?xml version="1.0" encoding="UTF-8" standalone="no"?>
<!DOCTYPE svg PUBLIC "-//W3C//DTD SVG 1.1//EN" "http://www.w3.org/Graphics/SVG/1.1/DTD/svg11.dtd">
<svg width="100%" height="100%" viewBox="0 0 1809 1442" version="1.1" xmlns="http://www.w3.org/2000/svg" xmlns:xlink="http://www.w3.org/1999/xlink" xmlns:serif="http://www.serif.com/" style="fill-rule:evenodd;clip-rule:evenodd;stroke-linecap:round;stroke-linejoin:round;stroke-miterlimit:1.5;">
    <g transform="matrix(1,0,0,1,-335.657,-995.937)">
        <g transform="matrix(0.954617,0,0,0.885206,56.9092,214.3)">
            <path d="M2187,914.838C2187,897.266 2173.77,883 2157.48,883L321.523,883C305.229,883 292,897.266 292,914.838L292,2480.16C292,2497.73 305.229,2512 321.523,2512L2157.48,2512C2173.77,2512 2187,2497.73 2187,2480.16L2187,914.838Z" style="fill:rgb(16,98,205);"/>
            <clipPath id="_clip1">
                <path d="M2187,914.838C2187,897.266 2173.77,883 2157.48,883L321.523,883C305.229,883 292,897.266 292,914.838L292,2480.16C292,2497.73 305.229,2512 321.523,2512L2157.48,2512C2173.77,2512 2187,2497.73 2187,2480.16L2187,914.838Z"/>
            </clipPath>
            <g clip-path="url(#_clip1)">
                <g transform="matrix(0.937312,0,0,1.15023,186.201,-271.002)">
                    <path d="M2106,1027.06C2106,1024.27 2103.42,1022 2100.24,1022L2045.76,1022C2042.58,1022 2040,1024.27 2040,1027.06L2040,1074.94C2040,1077.73 2042.58,1080 2045.76,1080L2100.24,1080C2103.42,1080 2106,1077.73 2106,1074.94L2106,1027.06Z" style="fill:rgb(205,20,16);"/>
                    <clipPath id="_clip2">
                        <path d="M2106,1027.06C2106,1024.27 2103.42,1022 2100.24,1022L2045.76,1022C2042.58,1022 2040,1024.27 2040,1027.06L2040,1074.94C2040,1077.73 2042.58,1080 2045.76,1080L2100.24,1080C2103.42,1080 2106,1077.73 2106,1074.94L2106,1027.06Z"/>
                    </clipPath>
                    <g clip-path="url(#_clip2)">
                        <g transform="matrix(1.1176,0,0,0.982133,-262.256,25.1347)">
                            <path d="M2072,1062.06L2107.05,1027" style="fill:none;stroke:white;stroke-width:3.45px;"/>
                        </g>
                        <g transform="matrix(-1.1176,0,0,0.982133,4408.26,25.1347)">
                            <path d="M2072,1062.06L2107.05,1027" style="fill:none;stroke:white;stroke-width:3.45px;"/>
                        </g>
                    </g>
                    <path d="M2106,1027.06C2106,1024.27 2103.42,1022 2100.24,1022L2045.76,1022C2042.58,1022 2040,1024.27 2040,1027.06L2040,1074.94C2040,1077.73 2042.58,1080 2045.76,1080L2100.24,1080C2103.42,1080 2106,1077.73 2106,1074.94L2106,1027.06Z" style="fill:none;stroke:white;stroke-width:1.45px;"/>
                </g>
                <g transform="matrix(0.937312,0,0,1.15023,116.016,-271.002)">
                    <path d="M2106,1027.06C2106,1024.27 2103.42,1022 2100.24,1022L2045.76,1022C2042.58,1022 2040,1024.27 2040,1027.06L2040,1074.94C2040,1077.73 2042.58,1080 2045.76,1080L2100.24,1080C2103.42,1080 2106,1077.73 2106,1074.94L2106,1027.06Z" style="fill:rgb(0,47,109);"/>
                    <clipPath id="_clip3">
                        <path d="M2106,1027.06C2106,1024.27 2103.42,1022 2100.24,1022L2045.76,1022C2042.58,1022 2040,1024.27 2040,1027.06L2040,1074.94C2040,1077.73 2042.58,1080 2045.76,1080L2100.24,1080C2103.42,1080 2106,1077.73 2106,1074.94L2106,1027.06Z"/>
                    </clipPath>
                    <g clip-path="url(#_clip3)">
                        <g transform="matrix(1.1176,0,0,1.12222,-186.787,-121.187)">
                            <rect x="2004" y="1027" width="36" height="35.055" style="fill:white;"/>
                            <g transform="matrix(0.888889,0,0,0.68793,224.667,329.248)">
                                <rect x="2004" y="1027" width="36" height="35.055" style="fill:rgb(0,47,109);"/>
                            </g>
                        </g>
                    </g>
                    <path d="M2106,1027.06C2106,1024.27 2103.42,1022 2100.24,1022L2045.76,1022C2042.58,1022 2040,1024.27 2040,1027.06L2040,1074.94C2040,1077.73 2042.58,1080 2045.76,1080L2100.24,1080C2103.42,1080 2106,1077.73 2106,1074.94L2106,1027.06Z" style="fill:none;stroke:white;stroke-width:1.45px;"/>
                </g>
                <g transform="matrix(0.937312,0,0,1.15023,44.7832,-271.002)">
                    <path d="M2106,1027.06C2106,1024.27 2103.42,1022 2100.24,1022L2045.76,1022C2042.58,1022 2040,1024.27 2040,1027.06L2040,1074.94C2040,1077.73 2042.58,1080 2045.76,1080L2100.24,1080C2103.42,1080 2106,1077.73 2106,1074.94L2106,1027.06Z" style="fill:rgb(0,47,109);"/>
                    <clipPath id="_clip4">
                        <path d="M2106,1027.06C2106,1024.27 2103.42,1022 2100.24,1022L2045.76,1022C2042.58,1022 2040,1024.27 2040,1027.06L2040,1074.94C2040,1077.73 2042.58,1080 2045.76,1080L2100.24,1080C2103.42,1080 2106,1077.73 2106,1074.94L2106,1027.06Z"/>
                    </clipPath>
                    <g clip-path="url(#_clip4)">
                        <g transform="matrix(1.1176,0,0,0.169645,-186.787,890.497)">
                            <rect x="2004" y="1027" width="36" height="35.055" style="fill:white;"/>
                        </g>
                    </g>
                    <path d="M2106,1027.06C2106,1024.27 2103.42,1022 2100.24,1022L2045.76,1022C2042.58,1022 2040,1024.27 2040,1027.06L2040,1074.94C2040,1077.73 2042.58,1080 2045.76,1080L2100.24,1080C2103.42,1080 2106,1077.73 2106,1074.94L2106,1027.06Z" style="fill:none;stroke:white;stroke-width:1.45px;"/>
                </g>
                <g transform="matrix(0.958491,0,0,0.752554,56.2428,363.63)">
                    <rect x="264" y="832" width="1941" height="1992" style="fill:white;"/>
                    <clipPath id="_clip5">
                        <rect x="264" y="832" width="1941" height="1992"/>
                    </clipPath>
                    <g clip-path="url(#_clip5)">
                        <g transform="matrix(1.1778,0,0,1.50113,-204.314,-757.751)">
                            <path d="M417.69,1194.23C401.408,1212.87 390.224,1236.99 386.882,1264.28C382.066,1303.62 394.573,1341.15 418.061,1367.93C380.582,1392.56 356.036,1427.81 345.07,1471.3C335.496,1509.26 334.837,1560.18 366.169,1624.3C386.902,1666.73 418.438,1700.66 456.028,1726.21C450.64,1731.11 446.225,1735.91 442.736,1740.21C418.61,1769.95 411.958,1801.6 412.437,1828.95C412.683,1843.02 414.593,1857.06 418.21,1870.84C369.751,1888.48 353.804,1930.76 348.626,1945.51C339.392,1971.81 336.652,2002.36 337.672,2029.76C339.585,2081.14 357.563,2131.18 388.161,2175.85C385.477,2193.11 383.404,2210.22 382.716,2224.36C381.199,2255.52 385.758,2280.8 390.965,2296.46C407.601,2346.51 440.069,2370.08 472.419,2380.35C512.414,2393.05 574.806,2386.93 615.773,2387.5C733.533,2389.13 851.281,2387.52 969.044,2388.24C1209.18,2389.72 1446.25,2412.62 1687.18,2397.19C1763.06,2392.33 1861.13,2384.59 1946.83,2357.83C2019.77,2335.06 2084.22,2298.23 2129.83,2245.98C2153.43,2218.95 2160.87,2190.99 2162.78,2167.08C2165.52,2132.54 2157.23,2098.67 2131.63,2068.38C2119.85,2054.44 2091.12,2029.81 2043.78,2021.88L2040.05,2021.34C2049.6,2010.63 2057.92,1999.49 2064.93,1988C2094.74,1939.1 2096.74,1888.16 2056.71,1836.77C2049.28,1827.24 2032.49,1806.28 1997.34,1795.8C1990.21,1793.68 1949.44,1788.55 1933.49,1787.44L1929.21,1787.18C1971.59,1770.34 2006.58,1751 2032.26,1729.62C2072.27,1696.32 2077.68,1658.51 2078.52,1632.88C2079.66,1598.25 2069.76,1564.42 2041.41,1535.64C2032.21,1526.29 1963.39,1499.99 1963.39,1499.99C1963.39,1499.99 1970.95,1501.27 1973.52,1501.9C1967.16,1500.33 1960.77,1498.85 1954.38,1497.45C2003.62,1457.05 2038.06,1405.39 2051.43,1346.04C2056.11,1325.27 2056.75,1306.5 2054.12,1289.48C2078.24,1268.12 2094.45,1236.54 2096.76,1200.37C2101.23,1130.58 2052.28,1070.01 1987.53,1065.19C1796.59,1051 1612.86,1084.02 1422.65,1061.19C1296.58,1046.07 1169.03,1043.11 1043.57,1022.53C954.995,1008 851.225,975.771 751.884,969.616C665.703,964.275 582.483,977.13 508.761,1020.28C502.511,1023.94 475.403,1040.72 461.219,1053.28C445.805,1066.94 435.782,1081.38 429.961,1092.03C411.319,1126.15 410.662,1158.32 415.589,1184.1L417.69,1194.23Z"/>
                        </g>
                    </g>
                </g>
            </g>
        </g>
    </g>
</svg>
