<?xml version="1.0" encoding="UTF-8" standalone="no"?>
<!DOCTYPE svg PUBLIC "-//W3C//DTD SVG 1.1//EN" "http://www.w3.org/Graphics/SVG/1.1/DTD/svg11.dtd">
<svg width="100%" height="100%" viewBox="0 0 546 501" version="1.1" xmlns="http://www.w3.org/2000/svg" xmlns:xlink="http://www.w3.org/1999/xlink" xml:space="preserve" xmlns:serif="http://www.serif.com/" style="fill-rule:evenodd;clip-rule:evenodd;stroke-linecap:round;stroke-linejoin:round;stroke-miterlimit:1.5;">
    <g transform="matrix(1,0,0,1,-57.5385,-2498.65)">
        <g transform="matrix(1,0,0,1,-846,-96.7816)">
            <path d="M1047.08,2623.88C970.876,2654.18 923.195,2713.75 908.451,2780.34C884.983,2886.34 944.515,3012.39 1108.96,3069.73C1163.65,3088.8 1221.38,3101.83 1279.32,3092.3C1367.36,3077.82 1420.75,3017.87 1440.56,2944.06C1467.84,2842.41 1430.51,2714.17 1331.81,2645.05C1266.46,2599.29 1174.09,2579.11 1055.53,2610.76C1049.7,2612.31 1046.1,2618.05 1047.08,2623.88ZM1220.02,2623.49C1217.67,2626.9 1213.56,2628.95 1209.16,2628.45C1051.6,2610.81 952.514,2688.65 931.103,2785.36C909.679,2882.12 966.477,2995.48 1116.6,3047.83C1167.65,3065.63 1221.47,3078.3 1275.56,3069.41C1353.49,3056.59 1400.62,3003.39 1418.15,2938.05C1443.15,2844.9 1408.94,2727.39 1318.5,2664.05C1290.86,2644.7 1258,2630.47 1220.02,2623.49Z" style="fill:rgb(197,47,42);"/>
            <path d="M968,2687L950,2718L941,2758C941,2758 908.982,2786.46 915.138,2786C921.295,2785.54 926,2845.47 926,2845.47L937,2903L960,2958L1016,3010L1083,3039L1156,3070L1214,3083.91L1291,3083.91L1338,3063L1374,3042L1402,3010L1417,2968L1437.66,2925L1437.66,2845.47L1423,2802L1404,2744L1373,2693L1317,2655L1271.09,2627L1176.4,2607.03L1118,2607.03L1082,2628L1030,2644L1003,2657L968,2687Z" style="fill:rgb(197,47,42);"/>
            <clipPath id="_clip1">
                <path d="M968,2687L950,2718L941,2758C941,2758 908.982,2786.46 915.138,2786C921.295,2785.54 926,2845.47 926,2845.47L937,2903L960,2958L1016,3010L1083,3039L1156,3070L1214,3083.91L1291,3083.91L1338,3063L1374,3042L1402,3010L1417,2968L1437.66,2925L1437.66,2845.47L1423,2802L1404,2744L1373,2693L1317,2655L1271.09,2627L1176.4,2607.03L1118,2607.03L1082,2628L1030,2644L1003,2657L968,2687Z"/>
            </clipPath>
            <g clip-path="url(#_clip1)">
                <path d="M1133.02,2864.56C1207.34,2888.59 1281.12,2895.93 1358.42,2878.7C1364.66,2877.31 1368.61,2871.11 1367.21,2864.86C1365.82,2858.61 1359.62,2854.67 1353.37,2856.06C1280.25,2872.36 1210.46,2865.22 1140.15,2842.49C1134.06,2840.52 1127.52,2843.87 1125.55,2849.96C1123.58,2856.05 1126.93,2862.59 1133.02,2864.56Z" style="fill:rgb(124,60,58);"/>
                <path d="M1170.26,2888.61C1220.35,2905.05 1277.91,2910.54 1329.94,2900.94C1336.24,2899.78 1340.4,2893.73 1339.24,2887.43C1338.08,2881.14 1332.03,2876.97 1325.73,2878.13C1277.43,2887.04 1224,2881.83 1177.5,2866.56C1171.41,2864.57 1164.86,2867.88 1162.86,2873.97C1160.86,2880.05 1164.18,2886.61 1170.26,2888.61Z" style="fill:rgb(124,60,58);"/>
                <path d="M1089.91,3094.94C1115.11,3082.74 1141.15,3068.03 1169.51,3065.41C1214.68,3061.25 1257.91,3071.73 1302.58,3058.06C1308.71,3056.19 1312.16,3049.7 1310.28,3043.57C1308.41,3037.45 1301.92,3034 1295.8,3035.88C1252.7,3049.06 1210.96,3038.29 1167.38,3042.31C1136.27,3045.18 1107.45,3060.67 1079.8,3074.06C1074.04,3076.85 1071.63,3083.8 1074.42,3089.56C1077.21,3095.32 1084.15,3097.73 1089.91,3094.94Z" style="fill:rgb(124,60,58);"/>
                <path d="M857.508,2675.97C895.68,2732.33 947.584,2772.86 1014.13,2788.79C1020.36,2790.28 1026.62,2786.44 1028.11,2780.21C1029.6,2773.99 1025.76,2767.72 1019.53,2766.23C958.772,2751.69 911.569,2714.42 876.717,2662.96C873.126,2657.66 865.908,2656.27 860.607,2659.86C855.306,2663.45 853.917,2670.67 857.508,2675.97Z" style="fill:rgb(124,60,58);"/>
                <path d="M1309.34,2715.93C1350.16,2713.39 1388.09,2702.38 1422.88,2680.69C1428.31,2677.3 1429.97,2670.14 1426.58,2664.71C1423.19,2659.28 1416.03,2657.62 1410.6,2661C1379.14,2680.62 1344.81,2690.48 1307.9,2692.77C1301.51,2693.17 1296.64,2698.68 1297.04,2705.07C1297.44,2711.46 1302.95,2716.33 1309.34,2715.93Z" style="fill:rgb(124,60,58);"/>
                <path d="M1073.91,2710.04C1075.35,2710.71 1076.77,2711.39 1078.2,2712.09C1083.95,2714.9 1090.9,2712.52 1093.72,2706.77C1096.53,2701.02 1094.15,2694.06 1088.39,2691.25C1086.86,2690.5 1085.32,2689.77 1083.77,2689.04C1077.98,2686.32 1071.06,2688.81 1068.34,2694.61C1065.62,2700.4 1068.12,2707.32 1073.91,2710.04Z" style="fill:rgb(124,60,58);"/>
                <path d="M1333.62,2984.22C1334.12,2984.23 1334.63,2984.24 1335.14,2984.25C1341.54,2984.4 1346.85,2979.32 1346.99,2972.91C1347.14,2966.51 1342.06,2961.2 1335.65,2961.06C1335.15,2961.05 1334.65,2961.04 1334.14,2961.03C1327.74,2960.88 1322.43,2965.96 1322.28,2972.36C1322.14,2978.76 1327.22,2984.08 1333.62,2984.22Z" style="fill:rgb(124,60,58);"/>
                <path d="M1055.55,2913.42C1055.52,2911.8 1055.5,2910.19 1055.5,2908.58C1055.5,2902.17 1050.31,2896.97 1043.91,2896.96C1037.51,2896.96 1032.3,2902.15 1032.3,2908.55C1032.3,2910.35 1032.32,2912.14 1032.36,2913.93C1032.5,2920.34 1037.81,2925.42 1044.21,2925.27C1050.61,2925.13 1055.69,2919.82 1055.55,2913.42Z" style="fill:rgb(124,60,58);"/>
            </g>
            <path d="M968,2687L950,2718L941,2758C941,2758 908.982,2786.46 915.138,2786C921.295,2785.54 926,2845.47 926,2845.47L937,2903L960,2958L1016,3010L1083,3039L1156,3070L1214,3083.91L1291,3083.91L1338,3063L1374,3042L1402,3010L1417,2968L1437.66,2925L1437.66,2845.47L1423,2802L1404,2744L1373,2693L1317,2655L1271.09,2627L1176.4,2607.03L1118,2607.03L1082,2628L1030,2644L1003,2657L968,2687Z" style="fill:none;stroke:rgb(197,47,42);stroke-width:3.45px;"/>
        </g>
    </g>
</svg>
