<?xml version="1.0" encoding="UTF-8" standalone="no"?>
<!DOCTYPE svg PUBLIC "-//W3C//DTD SVG 1.1//EN" "http://www.w3.org/Graphics/SVG/1.1/DTD/svg11.dtd">
<svg width="100%" height="100%" viewBox="0 0 688 1442" version="1.1" xmlns="http://www.w3.org/2000/svg" xmlns:xlink="http://www.w3.org/1999/xlink" xml:space="preserve" xmlns:serif="http://www.serif.com/" style="fill-rule:evenodd;clip-rule:evenodd;stroke-linecap:round;stroke-linejoin:round;stroke-miterlimit:1.5;">
    <g transform="matrix(1,0,0,1,-1792.5,0)">
        <g transform="matrix(1,0,0,1,0,0.000302234)">
            <g transform="matrix(0.362963,0,0,0.885206,1686.51,-781.637)">
                <path d="M2187,898.186C2187,889.805 2170.4,883 2149.96,883L329.037,883C308.596,883 292,889.805 292,898.186L292,2496.81C292,2505.2 308.596,2512 329.037,2512L2149.96,2512C2170.4,2512 2187,2505.2 2187,2496.81L2187,898.186Z" style="fill:rgb(16,98,205);"/>
                <clipPath id="_clip1">
                    <path d="M2187,898.186C2187,889.805 2170.4,883 2149.96,883L329.037,883C308.596,883 292,889.805 292,898.186L292,2496.81C292,2505.2 308.596,2512 329.037,2512L2149.96,2512C2170.4,2512 2187,2505.2 2187,2496.81L2187,898.186Z"/>
                </clipPath>
                <g clip-path="url(#_clip1)">
                    <g transform="matrix(2.46519,0,0,1.15023,-3031.52,-271.002)">
                        <path d="M2106,1027.06C2106,1024.27 2103.42,1022 2100.24,1022L2045.76,1022C2042.58,1022 2040,1024.27 2040,1027.06L2040,1074.94C2040,1077.73 2042.58,1080 2045.76,1080L2100.24,1080C2103.42,1080 2106,1077.73 2106,1074.94L2106,1027.06Z" style="fill:rgb(205,20,16);"/>
                        <clipPath id="_clip2">
                            <path d="M2106,1027.06C2106,1024.27 2103.42,1022 2100.24,1022L2045.76,1022C2042.58,1022 2040,1024.27 2040,1027.06L2040,1074.94C2040,1077.73 2042.58,1080 2045.76,1080L2100.24,1080C2103.42,1080 2106,1077.73 2106,1074.94L2106,1027.06Z"/>
                        </clipPath>
                        <g clip-path="url(#_clip2)">
                            <g transform="matrix(1.1176,0,0,0.982133,-262.256,25.1347)">
                                <path d="M2072,1062.06L2107.05,1027" style="fill:none;stroke:white;stroke-width:3.45px;"/>
                            </g>
                            <g transform="matrix(-1.1176,0,0,0.982133,4408.26,25.1347)">
                                <path d="M2072,1062.06L2107.05,1027" style="fill:none;stroke:white;stroke-width:3.45px;"/>
                            </g>
                        </g>
                        <path d="M2106,1027.06C2106,1024.27 2103.42,1022 2100.24,1022L2045.76,1022C2042.58,1022 2040,1024.27 2040,1027.06L2040,1074.94C2040,1077.73 2042.58,1080 2045.76,1080L2100.24,1080C2103.42,1080 2106,1077.73 2106,1074.94L2106,1027.06Z" style="fill:none;stroke:white;stroke-width:1.45px;"/>
                    </g>
                    <g transform="matrix(2.46519,0,0,1.15023,-3216.11,-271.002)">
                        <path d="M2106,1027.06C2106,1024.27 2103.42,1022 2100.24,1022L2045.76,1022C2042.58,1022 2040,1024.27 2040,1027.06L2040,1074.94C2040,1077.73 2042.58,1080 2045.76,1080L2100.24,1080C2103.42,1080 2106,1077.73 2106,1074.94L2106,1027.06Z" style="fill:rgb(0,47,109);"/>
                        <clipPath id="_clip3">
                            <path d="M2106,1027.06C2106,1024.27 2103.42,1022 2100.24,1022L2045.76,1022C2042.58,1022 2040,1024.27 2040,1027.06L2040,1074.94C2040,1077.73 2042.58,1080 2045.76,1080L2100.24,1080C2103.42,1080 2106,1077.73 2106,1074.94L2106,1027.06Z"/>
                        </clipPath>
                        <g clip-path="url(#_clip3)">
                            <g transform="matrix(1.1176,0,0,1.12222,-186.787,-121.187)">
                                <rect x="2004" y="1027" width="36" height="35.055" style="fill:white;"/>
                                <g transform="matrix(0.888889,0,0,0.68793,224.667,329.248)">
                                    <rect x="2004" y="1027" width="36" height="35.055" style="fill:rgb(0,47,109);"/>
                                </g>
                            </g>
                        </g>
                        <path d="M2106,1027.06C2106,1024.27 2103.42,1022 2100.24,1022L2045.76,1022C2042.58,1022 2040,1024.27 2040,1027.06L2040,1074.94C2040,1077.73 2042.58,1080 2045.76,1080L2100.24,1080C2103.42,1080 2106,1077.73 2106,1074.94L2106,1027.06Z" style="fill:none;stroke:white;stroke-width:1.45px;"/>
                    </g>
                    <g transform="matrix(2.46519,0,0,1.15023,-3403.46,-271.002)">
                        <path d="M2106,1027.06C2106,1024.27 2103.42,1022 2100.24,1022L2045.76,1022C2042.58,1022 2040,1024.27 2040,1027.06L2040,1074.94C2040,1077.73 2042.58,1080 2045.76,1080L2100.24,1080C2103.42,1080 2106,1077.73 2106,1074.94L2106,1027.06Z" style="fill:rgb(0,47,109);"/>
                        <clipPath id="_clip4">
                            <path d="M2106,1027.06C2106,1024.27 2103.42,1022 2100.24,1022L2045.76,1022C2042.58,1022 2040,1024.27 2040,1027.06L2040,1074.94C2040,1077.73 2042.58,1080 2045.76,1080L2100.24,1080C2103.42,1080 2106,1077.73 2106,1074.94L2106,1027.06Z"/>
                        </clipPath>
                        <g clip-path="url(#_clip4)">
                            <g transform="matrix(1.1176,0,0,0.169645,-186.787,890.497)">
                                <rect x="2004" y="1027" width="36" height="35.055" style="fill:white;"/>
                            </g>
                        </g>
                        <path d="M2106,1027.06C2106,1024.27 2103.42,1022 2100.24,1022L2045.76,1022C2042.58,1022 2040,1024.27 2040,1027.06L2040,1074.94C2040,1077.73 2042.58,1080 2045.76,1080L2100.24,1080C2103.42,1080 2106,1077.73 2106,1074.94L2106,1027.06Z" style="fill:none;stroke:white;stroke-width:1.45px;"/>
                    </g>
                    <g transform="matrix(0.932941,0,0,0.752554,87.7838,363.63)">
                        <rect x="264" y="832" width="1941" height="1992" style="fill:white;"/>
                    </g>
                </g>
            </g>
        </g>
    </g>
</svg>
