<?xml version="1.0" encoding="UTF-8" standalone="no"?>
<!DOCTYPE svg PUBLIC "-//W3C//DTD SVG 1.1//EN" "http://www.w3.org/Graphics/SVG/1.1/DTD/svg11.dtd">
<svg width="100%" height="100%" viewBox="0 0 932 632" version="1.1" xmlns="http://www.w3.org/2000/svg" xmlns:xlink="http://www.w3.org/1999/xlink" xml:space="preserve" xmlns:serif="http://www.serif.com/" style="fill-rule:evenodd;clip-rule:evenodd;stroke-linecap:round;stroke-linejoin:round;stroke-miterlimit:1.5;">
    <g transform="matrix(1,0,0,1,-466.217,-1956.56)">
        <g>
            <g transform="matrix(-0.910212,-0.414142,-0.414142,0.910212,2710.4,596.563)">
                <g transform="matrix(-1,0,0,1,1905.06,0)">
                    <path d="M493,2216L535,2216L564,2200L591,2183L621,2163L650,2129L667,2107L705,2079L746,2038L804,2008L862,1985.82L1020,1985.82L1055,2020L1083,2053L1100,2070L1122,2060L1157,2050L1186,2048L1216,2053L1240.16,2070L1240.16,2095L1270,2104L1300,2116L1330,2124L1346,2142C1346,2142 1344.91,2146.97 1373,2159C1401.09,2171.03 1413,2174 1413,2174L1411,2198L1374,2211L1336,2218L1300,2233L1288,2250.63L1265,2274L1240.16,2270L1206,2272L1191,2290L1166,2317L1146,2337L1107,2361L1075,2371L1046,2376L1028,2388L1006,2405L983,2420L952.531,2445L930,2480L890,2484L863,2464L831,2474L801,2495L769,2515.45L742,2497L725,2477L697,2450L656,2432L633,2423L603,2398L599,2363L603,2326L604,2295L579,2272L534,2250.63L466.158,2218L493,2216Z" style="fill:rgb(230,202,169);"/>
                    <clipPath id="_clip1">
                        <path d="M493,2216L535,2216L564,2200L591,2183L621,2163L650,2129L667,2107L705,2079L746,2038L804,2008L862,1985.82L1020,1985.82L1055,2020L1083,2053L1100,2070L1122,2060L1157,2050L1186,2048L1216,2053L1240.16,2070L1240.16,2095L1270,2104L1300,2116L1330,2124L1346,2142C1346,2142 1344.91,2146.97 1373,2159C1401.09,2171.03 1413,2174 1413,2174L1411,2198L1374,2211L1336,2218L1300,2233L1288,2250.63L1265,2274L1240.16,2270L1206,2272L1191,2290L1166,2317L1146,2337L1107,2361L1075,2371L1046,2376L1028,2388L1006,2405L983,2420L952.531,2445L930,2480L890,2484L863,2464L831,2474L801,2495L769,2515.45L742,2497L725,2477L697,2450L656,2432L633,2423L603,2398L599,2363L603,2326L604,2295L579,2272L534,2250.63L466.158,2218L493,2216Z"/>
                    </clipPath>
                    <g clip-path="url(#_clip1)">
                        <path d="M588,2267.4L623,2282L671,2287L703,2282L748,2278L786.063,2274L834,2275L865,2278L906,2286L952.531,2305.86L1007,2328L1044,2355L1066.03,2369.69L1036,2390L1017,2408L998,2418L979,2425L952.531,2443L967,2490L835,2533L672,2531L491,2400L588,2267.4Z" style="fill:rgb(168,137,100);"/>
                    </g>
                </g>
                <g transform="matrix(-1,0,0,1,1905.06,0)">
                    <path d="M456.572,2221.88C453.007,2227.11 454.298,2234.26 459.493,2237.9C480.818,2252.87 507.447,2258.1 533.047,2264.79C554.767,2270.47 575.805,2277.15 589.989,2296C604.573,2315.37 597.987,2332.48 593.037,2348.75C588.377,2364.07 584.777,2378.96 589.569,2393.95C597.802,2419.72 616.42,2430.46 638.035,2437.78C654.991,2443.53 674.072,2446.64 688.403,2457.84C700.777,2467.52 709.255,2481.92 719.225,2494.49C731.523,2510 745.736,2523.01 767.486,2526.7C772.792,2527.59 778.627,2526.75 784.757,2524.14C791.388,2521.31 798.652,2516.22 806.057,2510.05C815.65,2502.06 825.661,2492.2 835.111,2484.59C840.213,2480.49 845.001,2477.02 849.459,2475.53C853.937,2474.03 858.526,2474.54 863.186,2475.73C869.443,2477.33 875.771,2480.21 882.154,2483.11C898.596,2490.57 915.42,2497.44 931.584,2493.72C933.789,2493.21 936.084,2492.27 938.02,2491.08C948.14,2484.88 954.96,2475.61 961.051,2465.65C965.695,2458.06 969.825,2450.01 976.035,2443.83C988.607,2431.33 1004.6,2426.78 1018.79,2416.78C1029.99,2408.88 1038.14,2397.66 1049.11,2389.62C1054.98,2385.32 1066.22,2384.32 1078.07,2382.49C1093.45,2380.11 1109.76,2377.27 1121.39,2370.93C1141.51,2359.97 1156.07,2343.6 1169.92,2326.7C1182.16,2311.76 1193.78,2296.37 1209.61,2285.36C1217.82,2279.64 1226.39,2278.86 1235.06,2278.37C1246.91,2277.69 1259.01,2277.61 1271.31,2273.08C1282.74,2268.87 1291.56,2261.62 1299.66,2253.45C1306.28,2246.77 1312.36,2239.41 1319.71,2233.46C1330.95,2224.36 1346.4,2221.8 1362.12,2219.33C1381.22,2216.34 1400.8,2213.8 1416.62,2205.6C1425.57,2200.97 1434,2195.09 1441.22,2188.04C1441.73,2187.54 1446.87,2181.96 1447.81,2180.79C1450.49,2177.47 1450.45,2174.58 1450.48,2174.04C1450.81,2168.74 1448.25,2165.64 1445.38,2163.71C1441.88,2161.35 1434.78,2159.11 1425.85,2157.58C1410.67,2154.97 1388.74,2153.57 1378.96,2149.81C1369.49,2146.16 1362.29,2139.85 1355.14,2133.4C1346.29,2125.41 1337.55,2117.16 1326.61,2111.17C1315.44,2105.05 1302.91,2101.48 1290.45,2097.98C1279.79,2094.98 1269.17,2092.06 1259.95,2086.7C1258.48,2085.85 1257.42,2084.33 1256.27,2082.65C1254.21,2079.65 1252.28,2076.09 1250.1,2072.33C1241.83,2058.05 1230.68,2041.76 1205.37,2034.86C1179.56,2027.81 1150.09,2032.34 1126.07,2043.23C1124.18,2044.09 1111.48,2051.76 1102.63,2057.08C1101.18,2054.5 1099.86,2051.6 1098.48,2048.7C1094.52,2040.42 1090.46,2031.96 1085.29,2026.05C1047.26,1982.62 981.284,1972.11 927.037,1974.56C853.587,1977.87 781.363,1993.34 723.92,2041.52C688.401,2071.31 660.304,2105.8 630.807,2136.13C589.17,2178.94 544.671,2213.26 468.679,2209.87C462.283,2209.58 456.858,2214.54 456.573,2220.94C456.559,2221.26 456.557,2221.57 456.572,2221.88ZM1415.28,2179.41L1415.06,2179.38C1399.13,2177.1 1379.94,2175.05 1370.62,2171.45C1358.39,2166.74 1348.84,2158.96 1339.6,2150.63C1332.07,2143.83 1324.78,2136.62 1315.47,2131.52C1305.82,2126.24 1294.93,2123.34 1284.16,2120.31C1271.59,2116.77 1259.17,2113.08 1248.29,2106.76C1241.17,2102.62 1235.89,2094.09 1230.02,2083.95C1224.25,2073.98 1216.93,2062.06 1199.26,2057.24C1178.54,2051.59 1154.93,2055.62 1135.66,2064.36C1133.18,2065.49 1111.01,2079.17 1106.5,2081.8C1098.6,2086.4 1092.41,2081.14 1092.19,2080.95C1087.36,2076.72 1083.33,2070.35 1079.75,2063.23C1075.93,2055.62 1072.72,2046.92 1067.83,2041.33C1034.38,2003.13 975.801,1995.58 928.081,1997.73C859.734,2000.81 792.282,2014.46 738.829,2059.29C694.931,2096.11 662.578,2140.28 624.545,2174.47C591.019,2204.62 553.306,2227.37 500.934,2232.3C513.258,2236.33 526.263,2239.04 538.917,2242.35C565.721,2249.36 591.02,2258.79 608.524,2282.04C625.849,2305.06 623.664,2325.7 618.227,2345.39C616.008,2353.42 613.189,2361.24 611.567,2368.98C610.311,2374.97 609.758,2380.91 611.668,2386.89C617.274,2404.43 630.764,2410.82 645.482,2415.81C664.857,2422.38 686.32,2426.76 702.695,2439.57C716.479,2450.35 726.298,2466.07 737.405,2480.08C746.186,2491.16 755.827,2501.19 771.359,2503.82C773.33,2504.16 775.387,2503.03 777.725,2501.8C782.018,2499.55 786.539,2496.11 791.209,2492.22C808.422,2477.89 827.292,2458.47 842.109,2453.52C857.987,2448.22 874.884,2454.33 891.741,2461.98C903.3,2467.23 914.746,2473.65 926.11,2471.17C932.911,2466.92 937.134,2460.29 941.26,2453.55C946.874,2444.37 952.169,2434.85 959.674,2427.38C973.209,2413.92 990.144,2408.59 1005.42,2397.82C1016.51,2390 1024.54,2378.86 1035.4,2370.9C1042.05,2366.03 1053.27,2363.02 1066.15,2360.89C1081.01,2358.42 1098.56,2356.95 1110.29,2350.56C1127.69,2341.08 1140,2326.61 1151.98,2311.99C1165.58,2295.4 1178.77,2278.55 1196.36,2266.31C1208.49,2257.87 1220.93,2255.94 1233.74,2255.21C1243.38,2254.66 1253.28,2255 1263.29,2251.31C1271.38,2248.33 1277.44,2242.91 1283.17,2237.12C1290.39,2229.84 1297.1,2221.91 1305.12,2215.43C1319.37,2203.89 1338.59,2199.54 1358.53,2196.41C1375.11,2193.82 1392.22,2192.11 1405.96,2185C1409.17,2183.34 1412.29,2181.47 1415.28,2179.41Z"/>
                </g>
                <g transform="matrix(-1,0,0,1,1905.06,0)">
                    <path d="M503.97,2253.43C529.791,2258.26 552.767,2268 575.984,2276.48C601.033,2285.62 626.347,2293.34 655.143,2293.4C738.495,2293.58 817.993,2267.47 901.533,2288.97C980.603,2309.32 997.87,2341.62 1059.98,2379.58C1065.44,2382.92 1072.59,2381.2 1075.92,2375.74C1079.26,2370.27 1077.54,2363.13 1072.08,2359.79C1007.65,2320.41 989.336,2287.61 907.315,2266.5C821.835,2244.51 740.478,2270.38 655.191,2270.2C629.251,2270.15 606.506,2262.92 583.942,2254.68C559.547,2245.78 535.358,2235.69 508.228,2230.63C501.934,2229.45 495.871,2233.61 494.696,2239.9C493.521,2246.2 497.677,2252.26 503.97,2253.43Z"/>
                </g>
                <g transform="matrix(-1,0,0,1,1905.06,0)">
                    <path d="M1090.38,2070.3C1079.36,2152.27 1112.48,2226.43 1177.71,2276.59C1182.79,2280.49 1190.08,2279.54 1193.98,2274.47C1197.88,2269.39 1196.93,2262.1 1191.85,2258.2C1133.39,2213.24 1103.5,2146.86 1113.38,2073.4C1114.23,2067.05 1109.77,2061.21 1103.43,2060.35C1097.08,2059.5 1091.24,2063.96 1090.38,2070.3Z"/>
                </g>
                <g transform="matrix(-1,0,0,1,1905.06,0)">
                    <path d="M1240.3,2092.3C1223.65,2152.7 1233.64,2195.8 1274.92,2242.78C1279.14,2247.59 1286.48,2248.07 1291.29,2243.84C1296.1,2239.62 1296.57,2232.28 1292.35,2227.47C1256.96,2187.2 1248.39,2150.25 1262.67,2098.47C1264.37,2092.3 1260.74,2085.9 1254.57,2084.2C1248.4,2082.5 1242,2086.13 1240.3,2092.3Z"/>
                </g>
                <g transform="matrix(-1,0,0,1,1905.06,0)">
                    <path d="M1356.34,2152.33C1342.58,2164.75 1332.74,2181.22 1325.46,2198.09C1322.92,2203.97 1325.63,2210.8 1331.51,2213.34C1337.39,2215.88 1344.22,2213.16 1346.76,2207.29C1352.74,2193.43 1360.58,2179.75 1371.88,2169.55C1376.63,2165.26 1377.01,2157.92 1372.72,2153.17C1368.43,2148.42 1361.09,2148.04 1356.34,2152.33Z"/>
                </g>
            </g>
            <path d="M763.221,2338.23C709.518,2327.37 644.347,2326.1 602.842,2365.56C567.76,2398.92 566.27,2445.86 584.818,2487.45C602.736,2527.63 639.487,2562.35 680.225,2573.53C725.623,2585.99 785.402,2585.89 821.647,2551C854.608,2519.28 864.502,2472.74 855.238,2430.43C845.962,2388.07 817.528,2350.23 774.89,2335.71C770.696,2334.28 766.247,2335.4 763.221,2338.23ZM781.762,2363.99C779.55,2364.92 777.035,2365.16 774.533,2364.54C749.17,2358.28 719.558,2353.32 691.099,2354.93C664.246,2356.45 638.373,2363.79 618.829,2382.38C591.358,2408.5 591.483,2445.43 606.007,2478C621.16,2511.98 651.914,2541.71 686.365,2551.16C724.528,2561.64 775.09,2563.62 805.558,2534.29C832.555,2508.3 840.163,2470.05 832.575,2435.4C826.097,2405.81 808.502,2378.65 781.762,2363.99Z"/>
            <path d="M1211.43,2360.39C1212.27,2359.3 1212.94,2358.05 1213.36,2356.66C1215.22,2350.53 1211.76,2344.05 1205.63,2342.18C1138.56,2321.8 1048.57,2305.22 986.273,2348.61C905.643,2404.76 924.179,2535.43 1015.49,2568.17C1043.86,2578.34 1088.77,2588.01 1129.97,2587.97C1158.89,2587.95 1185.99,2582.98 1205.11,2571.01C1224.86,2558.64 1238.56,2538.37 1248.21,2517.63C1275.77,2458.43 1256.29,2399.03 1211.43,2360.39ZM1154.5,2352.63C1135.3,2348.41 1115.26,2345.3 1095.39,2344.48C1061.06,2343.05 1027.18,2348.39 999.531,2367.65C933.912,2413.34 949.008,2519.68 1023.32,2546.33C1049.74,2555.8 1091.58,2564.8 1129.95,2564.77C1154.08,2564.75 1176.84,2561.34 1192.79,2551.35C1208.76,2541.35 1219.38,2524.61 1227.18,2507.84C1257.34,2443.04 1218.49,2378.71 1154.5,2352.63Z"/>
            <ellipse cx="715.814" cy="2456.33" rx="131.136" ry="113.298" style="stroke:black;stroke-width:17.5px;"/>
            <ellipse cx="1097.9" cy="2451.14" rx="151.347" ry="118.481" style="stroke:black;stroke-width:17.5px;"/>
            <path d="M685.175,2425.14C684.067,2425.6 682.976,2426.07 681.906,2426.56C668.388,2432.79 658.332,2442.24 654.744,2453.52C650.872,2465.7 653.53,2481.27 671.043,2498.74C691.254,2518.91 728.542,2521.36 756.192,2509.62C773.885,2502.11 787.313,2489.02 791.306,2472.62C793.477,2463.7 793.016,2453.63 788.565,2442.68C788.331,2441.66 788.067,2440.63 787.776,2439.58C783.892,2425.58 776.364,2417.05 767.48,2412.34C761.185,2409 753.972,2407.62 746.452,2407.97C737.691,2405.88 728.508,2405.39 719.811,2406.6C705.659,2408.57 693.043,2414.94 685.175,2425.14ZM677.2,2459.61C677.07,2459.92 676.955,2460.23 676.852,2460.55C675.242,2465.62 677.493,2471.16 683.297,2477.89C680.354,2472.55 678.242,2466.45 677.2,2459.61Z" style="fill:rgb(106,106,106);"/>
            <path d="M662.732,2452.33C665.856,2461.99 669.34,2471.77 672.949,2481.26C675.224,2487.25 681.93,2490.26 687.914,2487.99C693.898,2485.71 696.91,2479.01 694.635,2473.02C691.164,2463.89 687.811,2454.49 684.807,2445.19C682.837,2439.1 676.293,2435.75 670.201,2437.72C664.109,2439.69 660.762,2446.24 662.732,2452.33Z" style="fill:rgb(106,106,106);"/>
            <path d="M1051.37,2418.85C1047.87,2419.6 1044.52,2420.52 1041.38,2421.61C1029.95,2425.6 1021.03,2431.97 1015.96,2440.57C1010.71,2449.46 1009.05,2461.05 1014.34,2476.05C1017.67,2485.49 1024.17,2493.91 1032.93,2501.03C1041.12,2511.24 1054.37,2521.58 1066.69,2526.84C1079.57,2532.33 1091.31,2532.27 1099.15,2526.18C1105.29,2526.95 1111.37,2527.36 1117.23,2527.4C1134.14,2527.53 1149.26,2524.53 1159.38,2518.89C1168.54,2513.79 1174.2,2506.53 1175.9,2497.77C1178.34,2485.24 1172.82,2470.66 1167.31,2459.93C1159.3,2444.36 1145.35,2427.64 1129.32,2419.6C1113.99,2411.93 1080.92,2410.2 1054.93,2417.74C1053.73,2418.09 1052.54,2418.46 1051.37,2418.85ZM1130.51,2493.14L1130.26,2493.49L1130.57,2493.5L1130.55,2493.36L1130.51,2493.14Z" style="fill:rgb(106,106,106);"/>
        </g>
    </g>
</svg>
