<?xml version="1.0" encoding="UTF-8" standalone="no"?>
<!DOCTYPE svg PUBLIC "-//W3C//DTD SVG 1.1//EN" "http://www.w3.org/Graphics/SVG/1.1/DTD/svg11.dtd">
<svg width="100%" height="100%" viewBox="0 0 437 478" version="1.1" xmlns="http://www.w3.org/2000/svg" xmlns:xlink="http://www.w3.org/1999/xlink" xml:space="preserve" xmlns:serif="http://www.serif.com/" style="fill-rule:evenodd;clip-rule:evenodd;stroke-linecap:round;stroke-linejoin:round;stroke-miterlimit:1.5;">
    <g transform="matrix(1,0,0,1,-1301.84,-2572.39)">
        <g transform="matrix(1,0,0,1,281.231,1152.53)">
            <path d="M1067.45,1528.24C1057.77,1540.56 1049.47,1553.93 1042.83,1568.05C992.286,1675.52 1033.4,1781.24 1109.93,1842.75C1186.49,1904.28 1298.35,1921.39 1389.01,1852.12C1429.09,1821.5 1448.66,1768.75 1454.62,1720.26C1463.54,1647.61 1450.19,1565.64 1406.21,1505.53C1315.32,1381.27 1144.57,1396.29 1068.47,1522.72C1067.44,1524.44 1067.12,1526.4 1067.45,1528.24ZM1139.3,1469.33C1149.29,1464.32 1159.68,1460.14 1170.37,1456.89C1174.6,1455.61 1179.07,1458 1180.35,1462.22C1181.63,1466.45 1179.25,1470.92 1175.02,1472.2C1123.79,1487.76 1080.04,1526.54 1057.31,1574.86C1010.3,1674.81 1048.78,1773.07 1119.95,1830.28C1191.1,1887.46 1295.05,1903.79 1379.3,1839.41C1416,1811.36 1433.28,1762.72 1438.74,1718.31C1447.18,1649.55 1434.92,1571.88 1393.3,1514.97C1327.96,1425.66 1217.84,1414.55 1139.3,1469.33Z" style="fill:rgb(16,98,205);"/>
            <g transform="matrix(1.36569,0,0,1.22629,-492.766,-373.548)">
                <ellipse cx="1268" cy="1657" rx="154" ry="188" style="fill:rgb(16,98,205);"/>
                <clipPath id="_clip1">
                    <ellipse cx="1268" cy="1657" rx="154" ry="188"/>
                </clipPath>
                <g clip-path="url(#_clip1)">
                    <g transform="matrix(0.732232,0,0,0.815469,360.819,304.617)">
                        <path d="M1274.98,1611.32C1258.25,1605.95 1237.5,1600.23 1220.81,1604.23C1203.66,1608.35 1186.41,1621.92 1176.76,1638.67C1166.56,1656.36 1164.77,1677.26 1178.38,1694.48C1188.67,1707.5 1206.26,1710.57 1222.89,1712.63C1229.57,1713.45 1236.01,1714.17 1241.27,1715.97C1244.7,1717.14 1247.61,1718.68 1248.95,1721.86C1255.86,1738.23 1250.44,1758.28 1248.06,1775.19C1247.01,1782.59 1245.63,1789.92 1244.39,1797.29C1244.35,1797.52 1243.9,1800.12 1243.84,1800.64C1243.13,1807.2 1249.1,1809.14 1249.64,1809.29C1257.56,1811.5 1266.76,1809.68 1275.54,1805.32C1286.97,1799.64 1297.73,1789.84 1303.28,1782.75C1320.93,1760.19 1323.73,1732.93 1331.93,1706.64C1336.91,1690.69 1344.93,1675.33 1351.31,1659.88C1354.66,1651.75 1361.79,1640.81 1366.47,1630.11C1370.26,1621.41 1372.42,1612.78 1371.34,1605.44C1370.45,1599.44 1366.64,1594.45 1361.15,1590.8C1354.93,1586.66 1346.52,1584.29 1340.9,1583.39C1314.94,1579.22 1290.98,1592.2 1274.98,1611.32ZM1261.23,1793.77C1263.6,1793.19 1266.03,1792.18 1268.43,1790.99C1277.6,1786.43 1286.23,1778.57 1290.68,1772.89C1307.1,1751.91 1309.03,1726.32 1316.66,1701.88C1321.78,1685.47 1329.96,1669.66 1336.52,1653.78C1339.9,1645.57 1347.08,1634.51 1351.8,1623.7C1354.28,1618.05 1356.21,1612.54 1355.51,1607.77C1355.16,1605.4 1352.66,1604.18 1350.28,1602.95C1346.31,1600.89 1341.64,1599.71 1338.36,1599.19C1316.9,1595.74 1297.51,1607.97 1285.05,1624.34C1283.29,1627.79 1279.23,1629.54 1275.43,1628.3C1260.46,1623.38 1240.43,1615.98 1224.54,1619.79C1211.27,1622.98 1198.09,1633.7 1190.62,1646.66C1183.7,1658.67 1181.69,1672.87 1190.93,1684.56C1195.2,1689.97 1201.51,1692.45 1208.25,1694.08C1216.55,1696.07 1225.54,1696.68 1233.6,1697.91C1247.75,1700.06 1259.07,1704.69 1263.69,1715.63C1271.69,1734.6 1266.66,1757.84 1263.9,1777.42C1263.12,1782.89 1262.18,1788.33 1261.23,1793.77Z" style="fill:rgb(59,137,61);"/>
                    </g>
                    <g transform="matrix(0.732232,0,0,0.815469,360.819,304.617)">
                        <path d="M1302.91,1590.43C1303.62,1593.01 1305.61,1595.18 1308.36,1595.99C1311.09,1596.79 1314.58,1597.53 1318.56,1598.23L1320.99,1599.65C1323.49,1601.14 1326.47,1601.11 1328.86,1599.84C1337.56,1601.07 1347.23,1602.21 1356.03,1603.41C1366.06,1604.77 1374.83,1606.03 1378.69,1607.94C1380.95,1609.05 1382.56,1611.32 1384.53,1613.2C1386.95,1615.52 1389.6,1617.58 1392.76,1618.9C1396.14,1620.32 1412.84,1623.25 1419.96,1622.65C1426.02,1622.14 1428.84,1618.5 1429.6,1616.27C1430.01,1615.09 1430.29,1613.45 1429.98,1611.39C1429.75,1609.82 1429.02,1607.49 1427.76,1604.69C1422.71,1593.43 1407.88,1570.49 1405.07,1565.48C1378.88,1518.83 1343.33,1463.72 1285.96,1453.55C1265.66,1449.94 1252.96,1450.67 1243.32,1454.55C1235.66,1457.63 1229.72,1462.7 1223.7,1469.83C1218.55,1475.92 1213.24,1483.65 1206.04,1492.88C1202.54,1497.37 1197.41,1501.46 1193.32,1506.09C1189.7,1510.2 1186.79,1514.68 1185.4,1519.74C1183.87,1525.29 1185.33,1530.54 1187.94,1535.59C1188.91,1537.45 1190.02,1539.28 1190.9,1541.12C1191.37,1542.09 1192.08,1542.96 1191.75,1543.99C1190.83,1546.83 1187.64,1548.56 1184.42,1550.58C1179.18,1553.84 1173.21,1556.88 1168.68,1560.41C1163.45,1564.47 1159.95,1569.29 1159.05,1574.92C1158.43,1578.84 1158.97,1583.31 1161.62,1588.41C1164.67,1594.31 1168.99,1599.33 1175.46,1601.64C1181.35,1603.73 1188.33,1603.37 1195.53,1601.66C1203.67,1599.72 1212.18,1595.97 1218.85,1594.93C1230.28,1593.16 1241.92,1595.25 1253.37,1593.57C1279.45,1589.76 1286.69,1584.28 1302.91,1590.43ZM1409.87,1606.25C1403.82,1595.64 1393.23,1577.08 1391.12,1573.31C1378.84,1551.45 1364.58,1527.42 1346.62,1507.68C1329.44,1488.81 1308.87,1473.86 1283.17,1469.3C1267.04,1466.44 1256.94,1466.31 1249.3,1469.39C1244,1471.52 1240.08,1475.23 1235.92,1480.15C1230.89,1486.11 1225.7,1493.69 1218.65,1502.72C1215.5,1506.77 1211.16,1510.58 1207.23,1514.62C1204.47,1517.47 1201.82,1520.37 1200.82,1523.99C1200.48,1525.23 1201.21,1526.32 1201.76,1527.46C1202.67,1529.34 1203.8,1531.18 1204.75,1533.04C1207.41,1538.19 1208.74,1543.46 1206.97,1548.92C1205.56,1553.26 1202.5,1557.08 1198.29,1560.4C1193.79,1563.96 1187.81,1567.01 1182.53,1570.29C1177.97,1573.11 1172.96,1575.53 1175.82,1581.05C1177.01,1583.34 1178.32,1585.67 1180.83,1586.56C1185.12,1588.09 1190.35,1586.62 1195.63,1585.07C1203.01,1582.92 1210.4,1580.06 1216.39,1579.12C1227.87,1577.34 1239.56,1579.42 1251.05,1577.74C1288.57,1572.25 1292.3,1564.83 1324.24,1583.03C1334.21,1584.65 1346.95,1586.02 1358.19,1587.55C1370.44,1589.22 1381.06,1591.26 1385.78,1593.59C1388.5,1594.93 1390.88,1596.97 1393.18,1599.25C1394.95,1601.01 1396.55,1603.14 1398.94,1604.15C1400.38,1604.75 1405.14,1605.68 1409.87,1606.25Z" style="fill:rgb(59,137,61);"/>
                    </g>
                    <g transform="matrix(0.732232,0,0,0.815469,360.819,304.617)">
                        <path d="M1075.34,1701.04C1074.53,1700.29 1073.53,1699.69 1072.41,1699.32C1050.65,1692.23 1027.95,1697.34 1018.08,1710.64C1011.13,1720.01 1009.31,1733.8 1019.07,1751.38C1027.65,1766.85 1042.2,1775.57 1056.81,1784.39C1068.87,1791.69 1081.04,1799.03 1087.47,1813.11C1091.97,1822.95 1093.35,1833.61 1095.18,1844.17C1097.29,1856.39 1099.93,1868.48 1106.71,1879.53C1108.84,1883.01 1112.38,1888.57 1116.47,1892.79C1120.19,1896.62 1124.45,1899.31 1128.53,1900.06C1128.84,1900.12 1136.61,1900.73 1137.88,1893.48C1137.98,1892.93 1138.37,1890.13 1138.4,1889.89C1139.42,1882.46 1139.96,1874.93 1140.4,1867.45C1141.35,1850.97 1142.21,1834.61 1144.37,1818.23C1149.72,1777.74 1150.92,1738.27 1110.89,1714.25C1100.17,1707.81 1087.05,1705.54 1075.34,1701.04ZM1064.8,1713.75C1056.47,1711.51 1048.07,1711.46 1041.18,1713.58C1036.92,1714.9 1033.26,1717.03 1030.93,1720.18C1026.91,1725.59 1027.42,1733.46 1033.06,1743.62C1040.24,1756.56 1052.87,1763.32 1065.09,1770.7C1079.85,1779.62 1094.15,1789.22 1102.03,1806.46C1107.1,1817.56 1108.88,1829.53 1110.94,1841.44C1112.71,1851.69 1114.67,1861.91 1120.35,1871.17C1121.22,1872.6 1122.38,1874.49 1123.75,1876.44C1124.02,1873.13 1124.23,1869.82 1124.42,1866.52C1125.4,1849.65 1126.29,1832.9 1128.51,1816.13C1133.01,1782.08 1136.32,1748.17 1102.66,1727.97C1091.76,1721.42 1078.15,1719.67 1066.49,1714.72C1065.88,1714.46 1065.31,1714.13 1064.8,1713.75Z" style="fill:rgb(59,137,61);"/>
                    </g>
                    <g transform="matrix(0.732232,0,0,0.815469,360.819,304.617)">
                        <path d="M1072,1716.94C1072,1716.94 1124.22,1716.45 1136,1753.94C1147.78,1791.42 1138,1829 1138,1829L1129,1884L1108,1866L1102,1831L1092,1804L1079.75,1793L1062,1782.94L1072,1716.94Z" style="fill:rgb(59,137,61);stroke:rgb(59,137,61);stroke-width:3.45px;"/>
                    </g>
                    <g transform="matrix(0.732232,0,0,0.815469,360.819,304.617)">
                        <path d="M1197,1700L1185,1679L1181,1656L1190,1631L1205,1623L1225,1617C1225,1617 1239.41,1613.82 1245,1614C1250.59,1614.18 1270.15,1617 1270.15,1617L1285,1613L1305,1603L1319,1590.61L1305,1584.63L1280,1581L1247,1584.63L1220,1584.63L1197,1590.61L1186,1598L1173,1590.61L1171,1579L1171,1569L1183,1559L1193,1551L1197,1541L1196,1531L1192,1515L1201,1508C1201,1508 1211.16,1498.28 1214,1496C1216.84,1493.72 1223.8,1488.9 1226,1485C1228.2,1481.1 1235,1471 1235,1471C1235,1471 1243.2,1463.82 1248,1463C1252.8,1462.18 1256.7,1461.82 1262,1462C1267.3,1462.18 1280,1464 1280,1464L1295,1467L1315,1474L1330,1484L1342,1496L1351,1503C1351,1503 1366.2,1515.9 1368,1519C1369.8,1522.1 1377.8,1529.82 1379,1534C1380.2,1538.18 1388,1553 1388,1553C1388,1553 1395.62,1566.39 1398,1569C1400.38,1571.61 1407,1584.63 1407,1584.63L1418,1603L1426,1618L1406,1618L1385,1609L1370,1602L1363.63,1615L1358,1630L1349,1655L1331,1693L1307,1760L1289,1790L1270.15,1802.26L1256,1800.47L1255,1782.94L1258,1762L1257,1749L1259,1727L1252,1711L1238.93,1708L1217,1704L1197,1700Z" style="fill:rgb(59,137,61);stroke:rgb(59,137,61);stroke-width:3.45px;"/>
                    </g>
                    <g transform="matrix(0.732232,0,0,0.815469,360.819,304.617)">
                        <path d="M1085.78,1716.6C1083.83,1699.15 1077.5,1681.59 1077.71,1664.05C1078.15,1626.18 1094.85,1591.53 1057.91,1562.44C1029.56,1540.12 1010.1,1554.44 1001.7,1586.38C993.513,1617.48 975.862,1679.31 987.515,1711.03C993.92,1728.47 1002.99,1728.63 1011.17,1713.08C1015.31,1705.2 1016.18,1696.65 1016.48,1687.88C1016.53,1686.6 1016.11,1675.72 1016.82,1675.5C1024.75,1673.11 1032.57,1679.79 1038.96,1683.48C1051.55,1690.76 1067.82,1694.41 1079.7,1702.32C1080.25,1702.68 1078.43,1702.01 1077.79,1701.87C1076.08,1701.48 1074.36,1701.13 1072.63,1700.8C1068.16,1699.93 1063.65,1699.24 1059.13,1698.66C1050.57,1697.56 1009.87,1686.25 1007.34,1696.54C1006.68,1699.2 1023.98,1698.33 1025.3,1698.21C1038.48,1697 1059.52,1698.71 1054.87,1678.58" style="fill:none;"/>
                        <clipPath id="_clip2">
                            <path d="M1085.78,1716.6C1083.83,1699.15 1077.5,1681.59 1077.71,1664.05C1078.15,1626.18 1094.85,1591.53 1057.91,1562.44C1029.56,1540.12 1010.1,1554.44 1001.7,1586.38C993.513,1617.48 975.862,1679.31 987.515,1711.03C993.92,1728.47 1002.99,1728.63 1011.17,1713.08C1015.31,1705.2 1016.18,1696.65 1016.48,1687.88C1016.53,1686.6 1016.11,1675.72 1016.82,1675.5C1024.75,1673.11 1032.57,1679.79 1038.96,1683.48C1051.55,1690.76 1067.82,1694.41 1079.7,1702.32C1080.25,1702.68 1078.43,1702.01 1077.79,1701.87C1076.08,1701.48 1074.36,1701.13 1072.63,1700.8C1068.16,1699.93 1063.65,1699.24 1059.13,1698.66C1050.57,1697.56 1009.87,1686.25 1007.34,1696.54C1006.68,1699.2 1023.98,1698.33 1025.3,1698.21C1038.48,1697 1059.52,1698.71 1054.87,1678.58"/>
                        </clipPath>
                        <g clip-path="url(#_clip2)">
                            <g transform="matrix(1,0,0,1.18421,0,-294.737)">
                                <ellipse cx="1040" cy="1581" rx="32" ry="19" style="fill:rgb(59,137,61);stroke:rgb(59,137,61);stroke-width:3.14px;"/>
                            </g>
                        </g>
                        <path d="M1022.23,1706.32C1024.21,1706.28 1025.66,1706.21 1026.03,1706.18C1031.97,1705.63 1039.35,1705.51 1045.62,1704.11C1051.2,1705.26 1055.82,1706.3 1058.11,1706.59C1062.46,1707.15 1066.8,1707.81 1071.11,1708.65C1072.75,1708.97 1074.39,1709.3 1076.03,1709.67L1076.74,1709.82C1077.17,1712.38 1077.55,1714.93 1077.83,1717.49C1078.32,1721.88 1082.29,1725.04 1086.67,1724.55C1091.06,1724.06 1094.23,1720.1 1093.73,1715.71C1091.82,1698.59 1085.5,1681.36 1085.7,1664.14C1085.88,1649.14 1088.65,1634.65 1089.55,1620.82C1091.07,1597.37 1087.66,1575.69 1062.86,1556.16C1049.14,1545.35 1036.92,1542.26 1026.81,1544.17C1011.84,1547 999.98,1561.45 993.958,1584.34C988.98,1603.26 980.573,1633.41 977.174,1661.44C974.768,1681.29 974.987,1700.13 980.006,1713.79C984.779,1726.78 992.041,1731.99 998.137,1732.4C1004.31,1732.82 1012.08,1728.53 1018.25,1716.8C1020.03,1713.41 1021.31,1709.9 1022.23,1706.32ZM1072.71,1689.56C1071,1681.03 1069.61,1672.49 1069.71,1663.95C1069.89,1648.66 1072.67,1633.89 1073.58,1619.78C1074.78,1601.33 1072.48,1584.1 1052.96,1568.73C1044,1561.67 1036.38,1558.64 1029.78,1559.89C1025.37,1560.72 1021.7,1563.58 1018.57,1567.73C1014.65,1572.91 1011.65,1579.99 1009.43,1588.41C1004.59,1606.81 996.363,1636.11 993.058,1663.37C990.995,1680.38 990.721,1696.56 995.025,1708.27C995.942,1710.77 996.902,1712.83 997.94,1714.45C998.298,1715 998.845,1715.62 999.246,1716.05C999.578,1715.78 999.982,1715.43 1000.27,1715.12C1001.57,1713.7 1002.82,1711.76 1004.09,1709.35C1004.8,1708 1005.4,1706.61 1005.89,1705.21C999.631,1703.11 998.715,1698.08 999.567,1694.62C1000.41,1691.21 1002.53,1688.46 1006.08,1686.61C1006.8,1686.24 1007.61,1685.91 1008.49,1685.62C1008.48,1682.21 1008.45,1675.75 1008.85,1674.05C1009.88,1669.62 1013.04,1668.29 1014.51,1667.85C1019.43,1666.36 1024.34,1666.93 1029.07,1668.75C1034.04,1670.66 1038.81,1674.15 1042.97,1676.56C1044.24,1677.29 1045.54,1677.99 1046.87,1678.65C1046.84,1674.98 1049.35,1671.65 1053.07,1670.79C1057.37,1669.8 1061.67,1672.48 1062.66,1676.78C1063.44,1680.16 1063.66,1683.12 1063.46,1685.72C1066.58,1686.96 1069.69,1688.21 1072.71,1689.56ZM1024.49,1684.17L1024.49,1684.55L1024.91,1684.58L1025.42,1684.63L1024.95,1684.4L1024.49,1684.17Z" style="fill:rgb(59,137,61);"/>
                    </g>
                    <g transform="matrix(0.732232,0,0,0.978263,360.819,78.9314)">
                        <rect x="983.652" y="1551.63" width="96.102" height="165.304" style="fill:rgb(59,137,61);stroke:rgb(59,137,61);stroke-width:3.12px;"/>
                    </g>
                </g>
            </g>
            <path d="M1285.32,1874.64C1297.91,1876.79 1311.13,1878.36 1323.79,1875.77C1334.49,1873.57 1343.47,1866.59 1352.75,1861.3C1359.75,1857.31 1367.44,1854.83 1374.17,1850.32C1387.03,1841.7 1399.49,1827.26 1408.11,1814.52C1422.02,1793.95 1432.97,1761.46 1440.48,1737.96C1441.82,1733.75 1439.5,1729.25 1435.3,1727.9C1431.09,1726.56 1426.58,1728.88 1425.24,1733.09C1418.14,1755.3 1408.01,1786.11 1394.85,1805.56C1387.31,1816.72 1376.52,1829.48 1365.26,1837.03C1358.85,1841.32 1351.49,1843.6 1344.84,1847.39C1336.98,1851.87 1329.62,1858.23 1320.57,1860.09C1309.86,1862.29 1298.67,1860.69 1288.02,1858.87C1283.66,1858.13 1279.53,1861.06 1278.78,1865.41C1278.04,1869.76 1280.97,1873.9 1285.32,1874.64Z" style="fill:rgb(16,98,205);"/>
        </g>
    </g>
</svg>
