<?xml version="1.0" encoding="UTF-8" standalone="no"?>
<!DOCTYPE svg PUBLIC "-//W3C//DTD SVG 1.1//EN" "http://www.w3.org/Graphics/SVG/1.1/DTD/svg11.dtd">
<svg width="100%" height="100%" viewBox="0 0 662 541" version="1.1" xmlns="http://www.w3.org/2000/svg" xmlns:xlink="http://www.w3.org/1999/xlink" xml:space="preserve" xmlns:serif="http://www.serif.com/" style="fill-rule:evenodd;clip-rule:evenodd;stroke-linecap:round;stroke-linejoin:round;stroke-miterlimit:1.5;">
    <g transform="matrix(1,0,0,1,-464.511,-2928.13)">
        <g transform="matrix(1,0,0,1,-1018.48,137.749)">
            <g>
                <path d="M1556,3227L1535,3225L1519,3211.03L1506,3195L1494.59,3166.69L1494.59,3087C1496.88,3081.8 1499.17,3058.1 1500,3053C1500.83,3047.9 1501,3027 1501,3027L1519,2997L1541,2972L1567,2951L1593,2938L1626.32,2926L1652,2916C1652,2916 1683.2,2908.59 1688,2909.85C1692.8,2911.11 1714.48,2905.04 1720,2909.85C1725.52,2914.66 1743.28,2925.52 1748,2926C1752.72,2926.48 1783,2936 1783,2936L1818,2943L1844,2951L1879,2961L1917,2974L1944.7,2982L1966,2989L2003,3006L2013,3038L2021,3067L2054,3096C2054,3096 2076.66,3107.48 2084,3111C2091.34,3114.52 2115,3126 2115,3126L2124,3158L2133.24,3211.03L2128.16,3231L1556,3227Z" style="fill:rgb(155,155,155);"/>
                <clipPath id="_clip1">
                    <path d="M1556,3227L1535,3225L1519,3211.03L1506,3195L1494.59,3166.69L1494.59,3087C1496.88,3081.8 1499.17,3058.1 1500,3053C1500.83,3047.9 1501,3027 1501,3027L1519,2997L1541,2972L1567,2951L1593,2938L1626.32,2926L1652,2916C1652,2916 1683.2,2908.59 1688,2909.85C1692.8,2911.11 1714.48,2905.04 1720,2909.85C1725.52,2914.66 1743.28,2925.52 1748,2926C1752.72,2926.48 1783,2936 1783,2936L1818,2943L1844,2951L1879,2961L1917,2974L1944.7,2982L1966,2989L2003,3006L2013,3038L2021,3067L2054,3096C2054,3096 2076.66,3107.48 2084,3111C2091.34,3114.52 2115,3126 2115,3126L2124,3158L2133.24,3211.03L2128.16,3231L1556,3227Z"/>
                </clipPath>
                <g clip-path="url(#_clip1)">
                    <g>
                        <path d="M2088.8,3067.99C2085.78,3065.32 2081.44,3064.32 2077.36,3065.72C2058.88,3072.08 2040.21,3089.52 2037.67,3109.8C2035.59,3126.39 2043.2,3145.43 2053.05,3158.45C2063.33,3172.05 2079.81,3180.39 2096.21,3183.78C2109.97,3186.63 2124.96,3184.7 2138.8,3183.35C2148.65,3182.4 2158.37,3180.8 2166.32,3174.25C2176.78,3165.64 2181.26,3150.54 2181.59,3137.59C2181.8,3129.43 2180,3121.57 2175.93,3114.46C2159.87,3086.35 2123.64,3075.25 2094.35,3068C2092.47,3067.53 2090.57,3067.55 2088.8,3067.99ZM2083.95,3088C2073.37,3091.95 2062.14,3101.13 2060.69,3112.68C2059.32,3123.6 2065.07,3135.89 2071.55,3144.45C2078.48,3153.62 2089.86,3158.78 2100.91,3161.06C2112.43,3163.44 2124.98,3161.39 2136.57,3160.26C2141.84,3159.75 2147.32,3159.85 2151.57,3156.34C2156.97,3151.89 2158.22,3143.68 2158.4,3136.99C2158.5,3133.11 2157.73,3129.35 2155.79,3125.97C2149.73,3115.36 2139.55,3108.41 2128.31,3103.19C2115.54,3097.26 2101.34,3093.63 2088.78,3090.52C2086.93,3090.06 2085.29,3089.18 2083.95,3088Z" style="fill:rgb(255,182,0);"/>
                        <g transform="matrix(1.15931,0,0,1,-345.075,0)">
                            <ellipse cx="2115.5" cy="3128.35" rx="50.5" ry="45.351" style="fill:rgb(255,182,0);stroke:rgb(255,182,0);stroke-width:3.18px;"/>
                        </g>
                    </g>
                    <path d="M1486.64,2978.6C1501.98,3007.85 1522.89,3045.43 1519.94,3079.9C1517.18,3112.29 1481.6,3117.43 1464.84,3093.7C1455.17,3080.01 1450.07,3034.36 1475.61,3029.43C1482.77,3028.05 1491.66,3040.16 1498.45,3041.58C1498.8,3041.66 1496.15,3019.72 1495.07,3018.72C1492.76,3016.58 1496.09,3024.93 1496.61,3028.03C1497.45,3032.99 1498.26,3037.95 1499.05,3042.92C1501.38,3057.52 1507.08,3084.15 1492.02,3095.61C1490.33,3096.89 1490.1,3091.82 1489.24,3089.87C1485.14,3080.52 1480.77,3049.49 1478.44,3048.16C1477.01,3047.34 1472.5,3068.44 1475.38,3090.77C1475.4,3090.92 1475.43,3091.06 1475.45,3091.21" style="fill:rgb(255,0,55);"/>
                    <path d="M1488.94,3008.04C1486.32,3009.3 1484.18,3011.61 1483.11,3015.5C1482.91,3016.23 1482.7,3017.32 1482.69,3018.69C1479.49,3017.7 1476.35,3017.47 1473.42,3018.04C1458.37,3020.95 1449.69,3032.71 1446.63,3047.96C1442.86,3066.72 1448.36,3090.47 1455.37,3100.4C1469.12,3119.86 1492.32,3124.45 1509.35,3115.97C1520.78,3110.28 1529.98,3098.72 1531.5,3080.89C1534.62,3044.33 1513.18,3004.24 1496.91,2973.21C1493.94,2967.54 1486.92,2965.35 1481.25,2968.33C1475.58,2971.3 1473.39,2978.32 1476.36,2983.99C1480.31,2991.51 1484.69,2999.59 1488.94,3008.04Z" style="fill:rgb(255,0,36);"/>
                </g>
                <path d="M1556,3227L1535,3225L1519,3211.03L1506,3195L1494.59,3166.69L1494.59,3087C1496.88,3081.8 1499.17,3058.1 1500,3053C1500.83,3047.9 1501,3027 1501,3027L1519,2997L1541,2972L1567,2951L1593,2938L1626.32,2926L1652,2916C1652,2916 1683.2,2908.59 1688,2909.85C1692.8,2911.11 1714.48,2905.04 1720,2909.85C1725.52,2914.66 1743.28,2925.52 1748,2926C1752.72,2926.48 1783,2936 1783,2936L1818,2943L1844,2951L1879,2961L1917,2974L1944.7,2982L1966,2989L2003,3006L2013,3038L2021,3067L2054,3096C2054,3096 2076.66,3107.48 2084,3111C2091.34,3114.52 2115,3126 2115,3126L2124,3158L2133.24,3211.03L2128.16,3231L1556,3227Z" style="fill:none;stroke:rgb(155,155,155);stroke-width:3.45px;"/>
                <path d="M1997.69,3004.25C2004.75,3032.24 2012.76,3062.56 2034.99,3082.62C2048.85,3095.14 2065.94,3103.87 2083.06,3111.05C2092.49,3115 2102.93,3116.18 2110.53,3123.49C2127.09,3139.45 2128.98,3164.95 2130.77,3186.53C2131.62,3196.77 2135.58,3213.2 2131.23,3222.73C2125.16,3236.02 2107.47,3238.77 2094.58,3239.51C2060.86,3241.45 2026.4,3238.25 1992.63,3237.76C1875.28,3236.08 1758.56,3238.17 1641.31,3232.47C1609.5,3230.93 1538.98,3238.35 1517.36,3211.84C1496.94,3186.82 1497.3,3150 1496.47,3119.48C1495.66,3089.48 1490.53,3052.21 1501.69,3023.45C1515.67,2987.42 1612.28,2922.41 1648.93,2913.62C1706.43,2899.85 1761.95,2926.81 1814.72,2945.59C1857.83,2960.93 1903.57,2968.22 1947.06,2982.59C1965.02,2988.53 1981.21,2998.16 1998.21,3006.29" style="fill:none;"/>
                <clipPath id="_clip2">
                    <path d="M1997.69,3004.25C2004.75,3032.24 2012.76,3062.56 2034.99,3082.62C2048.85,3095.14 2065.94,3103.87 2083.06,3111.05C2092.49,3115 2102.93,3116.18 2110.53,3123.49C2127.09,3139.45 2128.98,3164.95 2130.77,3186.53C2131.62,3196.77 2135.58,3213.2 2131.23,3222.73C2125.16,3236.02 2107.47,3238.77 2094.58,3239.51C2060.86,3241.45 2026.4,3238.25 1992.63,3237.76C1875.28,3236.08 1758.56,3238.17 1641.31,3232.47C1609.5,3230.93 1538.98,3238.35 1517.36,3211.84C1496.94,3186.82 1497.3,3150 1496.47,3119.48C1495.66,3089.48 1490.53,3052.21 1501.69,3023.45C1515.67,2987.42 1612.28,2922.41 1648.93,2913.62C1706.43,2899.85 1761.95,2926.81 1814.72,2945.59C1857.83,2960.93 1903.57,2968.22 1947.06,2982.59C1965.02,2988.53 1981.21,2998.16 1998.21,3006.29"/>
                </clipPath>
                <g clip-path="url(#_clip2)">
                    <path d="M1486.64,2978.6C1501.98,3007.85 1522.89,3045.43 1519.94,3079.9C1517.18,3112.29 1481.6,3117.43 1464.84,3093.7C1455.17,3080.01 1450.07,3034.36 1475.61,3029.43C1482.77,3028.05 1491.66,3040.16 1498.45,3041.58C1498.8,3041.66 1496.15,3019.72 1495.07,3018.72C1492.76,3016.58 1496.09,3024.93 1496.61,3028.03C1497.45,3032.99 1498.26,3037.95 1499.05,3042.92C1501.38,3057.52 1507.08,3084.15 1492.02,3095.61C1490.33,3096.89 1490.1,3091.82 1489.24,3089.87C1485.14,3080.52 1480.77,3049.49 1478.44,3048.16C1477.01,3047.34 1472.5,3068.44 1475.38,3090.77C1475.4,3090.92 1475.43,3091.06 1475.45,3091.21" style="fill:rgb(255,0,55);"/>
                    <path d="M1488.94,3008.04C1486.32,3009.3 1484.18,3011.61 1483.11,3015.5C1482.91,3016.23 1482.7,3017.32 1482.69,3018.69C1479.49,3017.7 1476.35,3017.47 1473.42,3018.04C1458.37,3020.95 1449.69,3032.71 1446.63,3047.96C1442.86,3066.72 1448.36,3090.47 1455.37,3100.4C1469.12,3119.86 1492.32,3124.45 1509.35,3115.97C1520.78,3110.28 1529.98,3098.72 1531.5,3080.89C1534.62,3044.33 1513.18,3004.24 1496.91,2973.21C1493.94,2967.54 1486.92,2965.35 1481.25,2968.33C1475.58,2971.3 1473.39,2978.32 1476.36,2983.99C1480.31,2991.51 1484.69,2999.59 1488.94,3008.04Z" style="fill:rgb(255,0,36);"/>
                </g>
                <path d="M1996.8,2992.68C1981.64,2985.12 1966.86,2976.92 1950.7,2971.58C1907.29,2957.23 1861.63,2949.97 1818.61,2934.66C1763.79,2915.15 1705.95,2888.03 1646.23,2902.34C1623.28,2907.84 1577.63,2934.14 1541.78,2962.68C1516.9,2982.48 1496.95,3003.6 1490.87,3019.26C1479.19,3049.37 1484.02,3088.38 1484.87,3119.79C1485.77,3152.7 1486.36,3192.19 1508.37,3219.17C1518.57,3231.67 1537.6,3238.67 1559.64,3241.61C1588.01,3245.39 1621.43,3243.12 1640.75,3244.06C1758.13,3249.76 1874.98,3247.67 1992.47,3249.36C2026.51,3249.85 2061.26,3253.05 2095.25,3251.09C2104.37,3250.57 2115.49,3248.99 2124.51,3244.59C2132.03,3240.91 2138.2,3235.39 2141.78,3227.55C2144.18,3222.29 2145.05,3215.55 2144.78,3208.4C2144.49,3200.44 2142.85,3191.87 2142.33,3185.58C2140.32,3161.34 2137.17,3133.05 2118.58,3115.14C2109.92,3106.8 2098.3,3104.86 2087.54,3100.35C2071.62,3093.67 2055.66,3085.65 2042.76,3074.01C2022.25,3055.5 2015.46,3027.24 2008.94,3001.41C2007.54,2995.85 2002.33,2992.25 1996.8,2992.68ZM1988.32,3014.36C1973.52,3007 1959.19,2998.82 1943.42,2993.6C1899.84,2979.2 1854.02,2971.89 1810.83,2956.52C1760.1,2938.46 1706.91,2911.66 1651.63,2924.91C1630.6,2929.95 1589.1,2954.67 1556.23,2980.83C1535.29,2997.5 1517.61,3014.47 1512.5,3027.65C1501.87,3055.04 1507.29,3090.59 1508.07,3119.16C1508.83,3147.29 1507.53,3181.45 1526.34,3204.5C1533.45,3213.22 1547.35,3216.56 1562.7,3218.61C1590.4,3222.3 1623.02,3219.97 1641.87,3220.88C1758.99,3226.57 1875.58,3224.48 1992.8,3226.16C2026.29,3226.64 2060.47,3229.86 2093.92,3227.93C2099.35,3227.62 2105.81,3226.97 2111.54,3224.91C2115.35,3223.54 2118.97,3221.64 2120.68,3217.91C2122.14,3214.7 2121.76,3210.3 2121.39,3205.87C2120.84,3199.29 2119.64,3192.62 2119.21,3187.49C2117.64,3168.55 2117.01,3145.85 2102.48,3131.85C2099.23,3128.72 2095.12,3127.4 2091,3126.05C2086.86,3124.69 2082.63,3123.45 2078.57,3121.74C2060.26,3114.07 2042.04,3104.62 2027.21,3091.23C2005.19,3071.35 1995.62,3042.36 1988.32,3014.36Z" style="fill:rgb(155,155,155);"/>
            </g>
            <g transform="matrix(1,0,0,1,554,1370.51)">
                <path d="M1067.45,1528.24C1057.77,1540.56 1049.47,1553.93 1042.83,1568.05C992.286,1675.52 1033.4,1781.24 1109.93,1842.75C1186.49,1904.28 1298.35,1921.39 1389.01,1852.12C1429.09,1821.5 1448.66,1768.75 1454.62,1720.26C1463.54,1647.61 1450.19,1565.64 1406.21,1505.53C1315.32,1381.27 1144.57,1396.29 1068.47,1522.72C1067.44,1524.44 1067.12,1526.4 1067.45,1528.24ZM1139.3,1469.33C1149.29,1464.32 1159.68,1460.14 1170.37,1456.89C1174.6,1455.61 1179.07,1458 1180.35,1462.22C1181.63,1466.45 1179.25,1470.92 1175.02,1472.2C1123.79,1487.76 1080.04,1526.54 1057.31,1574.86C1010.3,1674.81 1048.78,1773.07 1119.95,1830.28C1191.1,1887.46 1295.05,1903.79 1379.3,1839.41C1416,1811.36 1433.28,1762.72 1438.74,1718.31C1447.18,1649.55 1434.92,1571.88 1393.3,1514.97C1327.96,1425.66 1217.84,1414.55 1139.3,1469.33Z" style="fill:rgb(16,98,205);"/>
                <g transform="matrix(1.36569,0,0,1.22629,-492.766,-373.548)">
                    <ellipse cx="1268" cy="1657" rx="154" ry="188" style="fill:rgb(16,98,205);"/>
                    <clipPath id="_clip3">
                        <ellipse cx="1268" cy="1657" rx="154" ry="188"/>
                    </clipPath>
                    <g clip-path="url(#_clip3)">
                        <g transform="matrix(0.732232,0,0,0.815469,360.819,304.617)">
                            <path d="M1274.98,1611.32C1258.25,1605.95 1237.5,1600.23 1220.81,1604.23C1203.66,1608.35 1186.41,1621.92 1176.76,1638.67C1166.56,1656.36 1164.77,1677.26 1178.38,1694.48C1188.67,1707.5 1206.26,1710.57 1222.89,1712.63C1229.57,1713.45 1236.01,1714.17 1241.27,1715.97C1244.7,1717.14 1247.61,1718.68 1248.95,1721.86C1255.86,1738.23 1250.44,1758.28 1248.06,1775.19C1247.01,1782.59 1245.63,1789.92 1244.39,1797.29C1244.35,1797.52 1243.9,1800.12 1243.84,1800.64C1243.13,1807.2 1249.1,1809.14 1249.64,1809.29C1257.56,1811.5 1266.76,1809.68 1275.54,1805.32C1286.97,1799.64 1297.73,1789.84 1303.28,1782.75C1320.93,1760.19 1323.73,1732.93 1331.93,1706.64C1336.91,1690.69 1344.93,1675.33 1351.31,1659.88C1354.66,1651.75 1361.79,1640.81 1366.47,1630.11C1370.26,1621.41 1372.42,1612.78 1371.34,1605.44C1370.45,1599.44 1366.64,1594.45 1361.15,1590.8C1354.93,1586.66 1346.52,1584.29 1340.9,1583.39C1314.94,1579.22 1290.98,1592.2 1274.98,1611.32ZM1261.23,1793.77C1263.6,1793.19 1266.03,1792.18 1268.43,1790.99C1277.6,1786.43 1286.23,1778.57 1290.68,1772.89C1307.1,1751.91 1309.03,1726.32 1316.66,1701.88C1321.78,1685.47 1329.96,1669.66 1336.52,1653.78C1339.9,1645.57 1347.08,1634.51 1351.8,1623.7C1354.28,1618.05 1356.21,1612.54 1355.51,1607.77C1355.16,1605.4 1352.66,1604.18 1350.28,1602.95C1346.31,1600.89 1341.64,1599.71 1338.36,1599.19C1316.9,1595.74 1297.51,1607.97 1285.05,1624.34C1283.29,1627.79 1279.23,1629.54 1275.43,1628.3C1260.46,1623.38 1240.43,1615.98 1224.54,1619.79C1211.27,1622.98 1198.09,1633.7 1190.62,1646.66C1183.7,1658.67 1181.69,1672.87 1190.93,1684.56C1195.2,1689.97 1201.51,1692.45 1208.25,1694.08C1216.55,1696.07 1225.54,1696.68 1233.6,1697.91C1247.75,1700.06 1259.07,1704.69 1263.69,1715.63C1271.69,1734.6 1266.66,1757.84 1263.9,1777.42C1263.12,1782.89 1262.18,1788.33 1261.23,1793.77Z" style="fill:rgb(59,137,61);"/>
                        </g>
                        <g transform="matrix(0.732232,0,0,0.815469,360.819,304.617)">
                            <path d="M1302.91,1590.43C1303.62,1593.01 1305.61,1595.18 1308.36,1595.99C1311.09,1596.79 1314.58,1597.53 1318.56,1598.23L1320.99,1599.65C1323.49,1601.14 1326.47,1601.11 1328.86,1599.84C1337.56,1601.07 1347.23,1602.21 1356.03,1603.41C1366.06,1604.77 1374.83,1606.03 1378.69,1607.94C1380.95,1609.05 1382.56,1611.32 1384.53,1613.2C1386.95,1615.52 1389.6,1617.58 1392.76,1618.9C1396.14,1620.32 1412.84,1623.25 1419.96,1622.65C1426.02,1622.14 1428.84,1618.5 1429.6,1616.27C1430.01,1615.09 1430.29,1613.45 1429.98,1611.39C1429.75,1609.82 1429.02,1607.49 1427.76,1604.69C1422.71,1593.43 1407.88,1570.49 1405.07,1565.48C1378.88,1518.83 1343.33,1463.72 1285.96,1453.55C1265.66,1449.94 1252.96,1450.67 1243.32,1454.55C1235.66,1457.63 1229.72,1462.7 1223.7,1469.83C1218.55,1475.92 1213.24,1483.65 1206.04,1492.88C1202.54,1497.37 1197.41,1501.46 1193.32,1506.09C1189.7,1510.2 1186.79,1514.68 1185.4,1519.74C1183.87,1525.29 1185.33,1530.54 1187.94,1535.59C1188.91,1537.45 1190.02,1539.28 1190.9,1541.12C1191.37,1542.09 1192.08,1542.96 1191.75,1543.99C1190.83,1546.83 1187.64,1548.56 1184.42,1550.58C1179.18,1553.84 1173.21,1556.88 1168.68,1560.41C1163.45,1564.47 1159.95,1569.29 1159.05,1574.92C1158.43,1578.84 1158.97,1583.31 1161.62,1588.41C1164.67,1594.31 1168.99,1599.33 1175.46,1601.64C1181.35,1603.73 1188.33,1603.37 1195.53,1601.66C1203.67,1599.72 1212.18,1595.97 1218.85,1594.93C1230.28,1593.16 1241.92,1595.25 1253.37,1593.57C1279.45,1589.76 1286.69,1584.28 1302.91,1590.43ZM1409.87,1606.25C1403.82,1595.64 1393.23,1577.08 1391.12,1573.31C1378.84,1551.45 1364.58,1527.42 1346.62,1507.68C1329.44,1488.81 1308.87,1473.86 1283.17,1469.3C1267.04,1466.44 1256.94,1466.31 1249.3,1469.39C1244,1471.52 1240.08,1475.23 1235.92,1480.15C1230.89,1486.11 1225.7,1493.69 1218.65,1502.72C1215.5,1506.77 1211.16,1510.58 1207.23,1514.62C1204.47,1517.47 1201.82,1520.37 1200.82,1523.99C1200.48,1525.23 1201.21,1526.32 1201.76,1527.46C1202.67,1529.34 1203.8,1531.18 1204.75,1533.04C1207.41,1538.19 1208.74,1543.46 1206.97,1548.92C1205.56,1553.26 1202.5,1557.08 1198.29,1560.4C1193.79,1563.96 1187.81,1567.01 1182.53,1570.29C1177.97,1573.11 1172.96,1575.53 1175.82,1581.05C1177.01,1583.34 1178.32,1585.67 1180.83,1586.56C1185.12,1588.09 1190.35,1586.62 1195.63,1585.07C1203.01,1582.92 1210.4,1580.06 1216.39,1579.12C1227.87,1577.34 1239.56,1579.42 1251.05,1577.74C1288.57,1572.25 1292.3,1564.83 1324.24,1583.03C1334.21,1584.65 1346.95,1586.02 1358.19,1587.55C1370.44,1589.22 1381.06,1591.26 1385.78,1593.59C1388.5,1594.93 1390.88,1596.97 1393.18,1599.25C1394.95,1601.01 1396.55,1603.14 1398.94,1604.15C1400.38,1604.75 1405.14,1605.68 1409.87,1606.25Z" style="fill:rgb(59,137,61);"/>
                        </g>
                        <g transform="matrix(0.732232,0,0,0.815469,360.819,304.617)">
                            <path d="M1075.34,1701.04C1074.53,1700.29 1073.53,1699.69 1072.41,1699.32C1050.65,1692.23 1027.95,1697.34 1018.08,1710.64C1011.13,1720.01 1009.31,1733.8 1019.07,1751.38C1027.65,1766.85 1042.2,1775.57 1056.81,1784.39C1068.87,1791.69 1081.04,1799.03 1087.47,1813.11C1091.97,1822.95 1093.35,1833.61 1095.18,1844.17C1097.29,1856.39 1099.93,1868.48 1106.71,1879.53C1108.84,1883.01 1112.38,1888.57 1116.47,1892.79C1120.19,1896.62 1124.45,1899.31 1128.53,1900.06C1128.84,1900.12 1136.61,1900.73 1137.88,1893.48C1137.98,1892.93 1138.37,1890.13 1138.4,1889.89C1139.42,1882.46 1139.96,1874.93 1140.4,1867.45C1141.35,1850.97 1142.21,1834.61 1144.37,1818.23C1149.72,1777.74 1150.92,1738.27 1110.89,1714.25C1100.17,1707.81 1087.05,1705.54 1075.34,1701.04ZM1064.8,1713.75C1056.47,1711.51 1048.07,1711.46 1041.18,1713.58C1036.92,1714.9 1033.26,1717.03 1030.93,1720.18C1026.91,1725.59 1027.42,1733.46 1033.06,1743.62C1040.24,1756.56 1052.87,1763.32 1065.09,1770.7C1079.85,1779.62 1094.15,1789.22 1102.03,1806.46C1107.1,1817.56 1108.88,1829.53 1110.94,1841.44C1112.71,1851.69 1114.67,1861.91 1120.35,1871.17C1121.22,1872.6 1122.38,1874.49 1123.75,1876.44C1124.02,1873.13 1124.23,1869.82 1124.42,1866.52C1125.4,1849.65 1126.29,1832.9 1128.51,1816.13C1133.01,1782.08 1136.32,1748.17 1102.66,1727.97C1091.76,1721.42 1078.15,1719.67 1066.49,1714.72C1065.88,1714.46 1065.31,1714.13 1064.8,1713.75Z" style="fill:rgb(59,137,61);"/>
                        </g>
                        <g transform="matrix(0.732232,0,0,0.815469,360.819,304.617)">
                            <path d="M1072,1716.94C1072,1716.94 1124.22,1716.45 1136,1753.94C1147.78,1791.42 1138,1829 1138,1829L1129,1884L1108,1866L1102,1831L1092,1804L1079.75,1793L1062,1782.94L1072,1716.94Z" style="fill:rgb(59,137,61);stroke:rgb(59,137,61);stroke-width:3.45px;"/>
                        </g>
                        <g transform="matrix(0.732232,0,0,0.815469,360.819,304.617)">
                            <path d="M1197,1700L1185,1679L1181,1656L1190,1631L1205,1623L1225,1617C1225,1617 1239.41,1613.82 1245,1614C1250.59,1614.18 1270.15,1617 1270.15,1617L1285,1613L1305,1603L1319,1590.61L1305,1584.63L1280,1581L1247,1584.63L1220,1584.63L1197,1590.61L1186,1598L1173,1590.61L1171,1579L1171,1569L1183,1559L1193,1551L1197,1541L1196,1531L1192,1515L1201,1508C1201,1508 1211.16,1498.28 1214,1496C1216.84,1493.72 1223.8,1488.9 1226,1485C1228.2,1481.1 1235,1471 1235,1471C1235,1471 1243.2,1463.82 1248,1463C1252.8,1462.18 1256.7,1461.82 1262,1462C1267.3,1462.18 1280,1464 1280,1464L1295,1467L1315,1474L1330,1484L1342,1496L1351,1503C1351,1503 1366.2,1515.9 1368,1519C1369.8,1522.1 1377.8,1529.82 1379,1534C1380.2,1538.18 1388,1553 1388,1553C1388,1553 1395.62,1566.39 1398,1569C1400.38,1571.61 1407,1584.63 1407,1584.63L1418,1603L1426,1618L1406,1618L1385,1609L1370,1602L1363.63,1615L1358,1630L1349,1655L1331,1693L1307,1760L1289,1790L1270.15,1802.26L1256,1800.47L1255,1782.94L1258,1762L1257,1749L1259,1727L1252,1711L1238.93,1708L1217,1704L1197,1700Z" style="fill:rgb(59,137,61);stroke:rgb(59,137,61);stroke-width:3.45px;"/>
                        </g>
                        <g transform="matrix(0.732232,0,0,0.815469,360.819,304.617)">
                            <path d="M1085.78,1716.6C1083.83,1699.15 1077.5,1681.59 1077.71,1664.05C1078.15,1626.18 1094.85,1591.53 1057.91,1562.44C1029.56,1540.12 1010.1,1554.44 1001.7,1586.38C993.513,1617.48 975.862,1679.31 987.515,1711.03C993.92,1728.47 1002.99,1728.63 1011.17,1713.08C1015.31,1705.2 1016.18,1696.65 1016.48,1687.88C1016.53,1686.6 1016.11,1675.72 1016.82,1675.5C1024.75,1673.11 1032.57,1679.79 1038.96,1683.48C1051.55,1690.76 1067.82,1694.41 1079.7,1702.32C1080.25,1702.68 1078.43,1702.01 1077.79,1701.87C1076.08,1701.48 1074.36,1701.13 1072.63,1700.8C1068.16,1699.93 1063.65,1699.24 1059.13,1698.66C1050.57,1697.56 1009.87,1686.25 1007.34,1696.54C1006.68,1699.2 1023.98,1698.33 1025.3,1698.21C1038.48,1697 1059.52,1698.71 1054.87,1678.58" style="fill:none;"/>
                            <clipPath id="_clip4">
                                <path d="M1085.78,1716.6C1083.83,1699.15 1077.5,1681.59 1077.71,1664.05C1078.15,1626.18 1094.85,1591.53 1057.91,1562.44C1029.56,1540.12 1010.1,1554.44 1001.7,1586.38C993.513,1617.48 975.862,1679.31 987.515,1711.03C993.92,1728.47 1002.99,1728.63 1011.17,1713.08C1015.31,1705.2 1016.18,1696.65 1016.48,1687.88C1016.53,1686.6 1016.11,1675.72 1016.82,1675.5C1024.75,1673.11 1032.57,1679.79 1038.96,1683.48C1051.55,1690.76 1067.82,1694.41 1079.7,1702.32C1080.25,1702.68 1078.43,1702.01 1077.79,1701.87C1076.08,1701.48 1074.36,1701.13 1072.63,1700.8C1068.16,1699.93 1063.65,1699.24 1059.13,1698.66C1050.57,1697.56 1009.87,1686.25 1007.34,1696.54C1006.68,1699.2 1023.98,1698.33 1025.3,1698.21C1038.48,1697 1059.52,1698.71 1054.87,1678.58"/>
                            </clipPath>
                            <g clip-path="url(#_clip4)">
                                <g transform="matrix(1,0,0,1.18421,0,-294.737)">
                                    <ellipse cx="1040" cy="1581" rx="32" ry="19" style="fill:rgb(59,137,61);stroke:rgb(59,137,61);stroke-width:3.14px;"/>
                                </g>
                            </g>
                            <path d="M1022.23,1706.32C1024.21,1706.28 1025.66,1706.21 1026.03,1706.18C1031.97,1705.63 1039.35,1705.51 1045.62,1704.11C1051.2,1705.26 1055.82,1706.3 1058.11,1706.59C1062.46,1707.15 1066.8,1707.81 1071.11,1708.65C1072.75,1708.97 1074.39,1709.3 1076.03,1709.67L1076.74,1709.82C1077.17,1712.38 1077.55,1714.93 1077.83,1717.49C1078.32,1721.88 1082.29,1725.04 1086.67,1724.55C1091.06,1724.06 1094.23,1720.1 1093.73,1715.71C1091.82,1698.59 1085.5,1681.36 1085.7,1664.14C1085.88,1649.14 1088.65,1634.65 1089.55,1620.82C1091.07,1597.37 1087.66,1575.69 1062.86,1556.16C1049.14,1545.35 1036.92,1542.26 1026.81,1544.17C1011.84,1547 999.98,1561.45 993.958,1584.34C988.98,1603.26 980.573,1633.41 977.174,1661.44C974.768,1681.29 974.987,1700.13 980.006,1713.79C984.779,1726.78 992.041,1731.99 998.137,1732.4C1004.31,1732.82 1012.08,1728.53 1018.25,1716.8C1020.03,1713.41 1021.31,1709.9 1022.23,1706.32ZM1072.71,1689.56C1071,1681.03 1069.61,1672.49 1069.71,1663.95C1069.89,1648.66 1072.67,1633.89 1073.58,1619.78C1074.78,1601.33 1072.48,1584.1 1052.96,1568.73C1044,1561.67 1036.38,1558.64 1029.78,1559.89C1025.37,1560.72 1021.7,1563.58 1018.57,1567.73C1014.65,1572.91 1011.65,1579.99 1009.43,1588.41C1004.59,1606.81 996.363,1636.11 993.058,1663.37C990.995,1680.38 990.721,1696.56 995.025,1708.27C995.942,1710.77 996.902,1712.83 997.94,1714.45C998.298,1715 998.845,1715.62 999.246,1716.05C999.578,1715.78 999.982,1715.43 1000.27,1715.12C1001.57,1713.7 1002.82,1711.76 1004.09,1709.35C1004.8,1708 1005.4,1706.61 1005.89,1705.21C999.631,1703.11 998.715,1698.08 999.567,1694.62C1000.41,1691.21 1002.53,1688.46 1006.08,1686.61C1006.8,1686.24 1007.61,1685.91 1008.49,1685.62C1008.48,1682.21 1008.45,1675.75 1008.85,1674.05C1009.88,1669.62 1013.04,1668.29 1014.51,1667.85C1019.43,1666.36 1024.34,1666.93 1029.07,1668.75C1034.04,1670.66 1038.81,1674.15 1042.97,1676.56C1044.24,1677.29 1045.54,1677.99 1046.87,1678.65C1046.84,1674.98 1049.35,1671.65 1053.07,1670.79C1057.37,1669.8 1061.67,1672.48 1062.66,1676.78C1063.44,1680.16 1063.66,1683.12 1063.46,1685.72C1066.58,1686.96 1069.69,1688.21 1072.71,1689.56ZM1024.49,1684.17L1024.49,1684.55L1024.91,1684.58L1025.42,1684.63L1024.95,1684.4L1024.49,1684.17Z" style="fill:rgb(59,137,61);"/>
                        </g>
                        <g transform="matrix(0.732232,0,0,0.978263,360.819,78.9314)">
                            <rect x="983.652" y="1551.63" width="96.102" height="165.304" style="fill:rgb(59,137,61);stroke:rgb(59,137,61);stroke-width:3.12px;"/>
                        </g>
                    </g>
                </g>
                <path d="M1285.32,1874.64C1297.91,1876.79 1311.13,1878.36 1323.79,1875.77C1334.49,1873.57 1343.47,1866.59 1352.75,1861.3C1359.75,1857.31 1367.44,1854.83 1374.17,1850.32C1387.03,1841.7 1399.49,1827.26 1408.11,1814.52C1422.02,1793.95 1432.97,1761.46 1440.48,1737.96C1441.82,1733.75 1439.5,1729.25 1435.3,1727.9C1431.09,1726.56 1426.58,1728.88 1425.24,1733.09C1418.14,1755.3 1408.01,1786.11 1394.85,1805.56C1387.31,1816.72 1376.52,1829.48 1365.26,1837.03C1358.85,1841.32 1351.49,1843.6 1344.84,1847.39C1336.98,1851.87 1329.62,1858.23 1320.57,1860.09C1309.86,1862.29 1298.67,1860.69 1288.02,1858.87C1283.66,1858.13 1279.53,1861.06 1278.78,1865.41C1278.04,1869.76 1280.97,1873.9 1285.32,1874.64Z" style="fill:rgb(16,98,205);"/>
            </g>
            <g>
                <g transform="matrix(0.742533,0,0,0.686702,452.346,1014.6)">
                    <path d="M1613.29,3134.99C1578.26,3136.07 1552.47,3148.01 1535.16,3165.05C1511.51,3188.33 1502.71,3221.66 1508.05,3254.76C1517.98,3316.25 1578.28,3379.1 1682.71,3360.79C1782.59,3343.28 1797.22,3212.94 1735.58,3154.38C1709.72,3129.83 1670.37,3117.15 1617.95,3132.67C1616.24,3133.17 1614.67,3133.97 1613.29,3134.99ZM1657.34,3159.81C1654.76,3166.75 1648.1,3171.23 1640.91,3170.26C1601.33,3164.94 1573.22,3173.27 1556.2,3190.03C1540.7,3205.29 1535.33,3227.26 1538.83,3248.95C1546.6,3297.06 1596.01,3341.76 1677.71,3327.44C1749.09,3314.93 1759.02,3221.61 1714.96,3179.77C1701.01,3166.51 1681.69,3158.8 1657.34,3159.81Z" style="fill:rgb(95,95,95);"/>
                </g>
                <g transform="matrix(1.04459,0,0,1.19863,-78.1146,-642.442)">
                    <ellipse cx="1673.5" cy="3244.5" rx="78.5" ry="55.5" style="fill:rgb(95,95,95);"/>
                </g>
            </g>
            <g transform="matrix(1,0,0,1,0,-13.3069)">
                <path d="M1910.28,3175.42C1908.23,3174.18 1905.78,3173.57 1903.21,3173.81C1896.92,3174.41 1890.77,3175.95 1884.85,3178.13C1866.42,3184.93 1856.87,3199.36 1852.95,3216.43C1849.56,3231.22 1850.63,3248.07 1853.13,3262.23C1855.57,3276.11 1858.99,3290.07 1866.2,3302.33C1883.37,3331.48 1917.78,3346.49 1951.16,3343.7C1965.43,3342.51 1980.33,3338.97 1992.5,3331.14C2013.9,3317.37 2032.67,3288.9 2037.42,3260.4C2040.82,3240.08 2037.22,3219.88 2023.92,3204.34C2013.39,3192.05 1997.14,3184.25 1978.86,3179.92C1955.92,3174.48 1929.77,3174.37 1910.28,3175.42ZM1901.17,3197.54C1898.35,3198.09 1895.58,3198.9 1892.88,3199.9C1882.61,3203.69 1877.75,3212.11 1875.57,3221.63C1872.85,3233.43 1873.98,3246.89 1875.97,3258.2C1877.94,3269.37 1880.39,3280.7 1886.2,3290.56C1898.88,3312.1 1924.57,3322.64 1949.23,3320.58C1959.8,3319.7 1970.93,3317.42 1979.95,3311.62C1996.55,3300.95 2010.85,3278.69 2014.54,3256.58C2016.78,3243.17 2015.07,3229.69 2006.29,3219.43C1998.71,3210.58 1986.68,3205.61 1973.51,3202.49C1951.09,3197.18 1925.27,3197.66 1907.31,3198.84C1905.1,3198.98 1903,3198.5 1901.17,3197.54Z" style="fill:rgb(95,95,95);"/>
                <g transform="matrix(1.05744,0,0,1.08397,-116.078,-278.947)">
                    <ellipse cx="1946" cy="3256.5" rx="75" ry="65.5" style="fill:rgb(95,95,95);stroke:rgb(95,95,95);stroke-width:3.22px;"/>
                </g>
            </g>
            <g transform="matrix(1,0,0,1,14.139,4.27444)">
                <path d="M1948.95,3199.74C1947.59,3195.24 1943.54,3191.84 1938.58,3191.53C1932.26,3191.13 1924.77,3189.99 1917.78,3190.53C1911.3,3191.03 1905.2,3192.83 1900.03,3196.58C1880.31,3210.88 1878.48,3234.05 1888.1,3253.77C1897.13,3272.26 1916.44,3287 1938.07,3286.89C1966.71,3286.76 1980.15,3263.95 1978.47,3240.87C1977.2,3223.45 1967.15,3206.22 1948.95,3199.74Z" style="fill:rgb(155,155,155);"/>
            </g>
            <path d="M1694.21,3202.41C1692.23,3200.66 1689.65,3199.58 1686.81,3199.51C1662.03,3198.96 1636.07,3201.68 1621.41,3225.27C1614.13,3236.99 1611.63,3251.75 1620.06,3263.81C1627.7,3274.73 1639.72,3281.48 1653.33,3284.48C1671.88,3288.58 1693.29,3285.57 1707.79,3278.75C1724.41,3270.93 1740.02,3253.02 1734.91,3232.76C1730.46,3215.13 1718.02,3206.33 1703.09,3203.41C1700.21,3202.84 1697.24,3202.52 1694.21,3202.41Z" style="fill:rgb(155,155,155);"/>
        </g>
    </g>
</svg>
