<?xml version="1.0" encoding="UTF-8" standalone="no"?>
<!DOCTYPE svg PUBLIC "-//W3C//DTD SVG 1.1//EN" "http://www.w3.org/Graphics/SVG/1.1/DTD/svg11.dtd">
<svg width="100%" height="100%" viewBox="0 0 218 288" version="1.1" xmlns="http://www.w3.org/2000/svg" xmlns:xlink="http://www.w3.org/1999/xlink" xml:space="preserve" xmlns:serif="http://www.serif.com/" style="fill-rule:evenodd;clip-rule:evenodd;stroke-linejoin:round;stroke-miterlimit:2;">
    <g transform="matrix(1,0,0,1,-1298.78,-1506.06)">
        <g id="Coeur" transform="matrix(0.387626,0,0,0.387626,1268.75,1495.18)">
            <path d="M92.313,233.063C92.313,233.063 85.25,241.25 80.563,256.5C75.875,271.75 77.938,287.313 77.938,287.313C77.938,287.313 101.5,299.625 140.875,301.375C173.313,302.813 190.563,297 215.25,278.938C239.938,260.875 281.875,289.937 300.813,298.75C319.75,307.562 488.313,372.688 488.313,372.688L610.938,380.312C610.938,380.312 615.625,366.813 610.938,334.562C606.25,302.312 576.938,276.5 554.063,267.125C531.188,257.75 516.5,256.563 516.5,256.563L366.813,168.563C366.813,168.563 325.563,165.688 283.5,175C251.875,182.063 185,243.063 146.25,241.875C107.5,240.688 92.312,233.063 92.312,233.063Z" style="fill:rgb(212,51,48);fill-rule:nonzero;"/>
            <path d="M366.5,130.125L350.25,43.188C350.25,43.188 358,31.25 373.563,28.625C389.125,26 400.813,33.625 400.813,33.625L415.5,134.25L427.25,134.25L438.375,43.313C438.375,43.313 444.813,35.688 464.5,38.75C482.687,41.625 485.687,49.812 485.687,49.812L475.688,143.313L370.688,187.625L324.375,182.063L266,96.688C266,96.688 267.75,82.312 282.125,74.125C296.5,65.938 306.75,67.375 306.75,67.375L362.5,148.625L367.5,143.625L366.5,130.125Z" style="fill:rgb(244,66,54);fill-rule:nonzero;"/>
            <path d="M467.688,264.438C467.688,264.438 480.438,257.688 495.562,256.25C510.687,254.812 516.375,256.563 516.375,256.563C516.375,256.563 538.25,227.938 516.375,176.937C494.5,125.937 423.687,112.687 385,125.437C346.313,138.187 298.313,168.562 293.062,230.125C287.812,291.687 286,323.375 286,323.375L323.375,342.75L470.187,319.75L467.687,264.437Z" style="fill:rgb(244,66,54);fill-rule:nonzero;"/>
            <path d="M426.063,169.875C426.063,169.875 437.5,175.125 457.125,168.125C480.563,159.75 524,147.438 540.688,139.5C557.375,131.563 571.5,116.625 581.188,114C590.875,111.375 614.875,112.688 626.313,136.438C637.75,160.188 617.25,180.875 617.25,180.875L509.875,207.25L470.25,250.375L460.563,293.5L460.563,330.438L639.063,466.875C639.063,466.875 641.813,512.563 617.188,582.938C592.563,653.313 570.625,700 561,717.625C551.375,735.25 551.813,757.25 526.5,767.75C501.188,778.313 450.125,751.063 391.188,725.5C332.25,700 257.438,652.5 228.438,614.625C199.438,576.75 174.75,537.188 167.75,478.25C160.75,419.313 187.125,358.563 216.125,342.75C245.188,326.938 313.813,330.438 313.813,330.438C313.813,330.438 317.813,322.5 345.25,313.75C372.688,305 391.188,302.313 391.188,302.313L384.125,255.688L389.063,202.5L426.063,169.875Z" style="fill:rgb(212,51,48);fill-rule:nonzero;"/>
            <path d="M503.813,355.938C503.813,355.938 526.688,333.938 560.125,337.438C593.563,340.938 625.75,376.125 633.625,406.063C641.563,436 641.375,475.875 633.625,504.625C626.875,529.813 595.563,592.625 553.938,592.625C534.563,592.625 528.75,577.125 527.438,569.938C526.125,562.688 537.5,619 509.063,630.438C482,641.313 485.625,623.375 485.625,623.375L497.625,595.25C497.625,595.25 446.313,502.125 422.563,473.063C398.813,444 325.188,385.813 327.813,358.563C330.438,331.313 337.5,319.875 363.875,314.563C390.25,309.313 421.938,314.563 421.938,314.563L472.313,340.125L503.813,355.938Z" style="fill:rgb(254,95,95);fill-rule:nonzero;"/>
            <path d="M318.125,408.437C318.125,408.437 302.875,435.437 282.313,408.437C261.813,381.437 244.75,356.25 246.5,298.187C248.25,240.125 251.188,210.812 243.563,180.312C235.938,149.812 233.5,132.312 233.5,132.312L213.062,151.625L193.625,156.25L180.75,149.25C180.75,149.25 169.625,151 173.75,155.687C177.875,160.375 193.062,180.375 199.5,193.187C208,210.187 216.5,267.687 198.75,302.875C177.375,345.312 170.125,380.312 175.312,416.125C179.188,442.812 207.937,477.125 207.937,477.125L229.313,492.375L277.438,488.25L315,448.938L318.125,408.437Z" style="fill:rgb(255,106,101);fill-rule:nonzero;"/>
            <path d="M227.813,100.188C208.75,97.375 181.813,111.063 173.938,129.25C166.563,146.125 170.375,164.125 191.938,160.625C213.5,157.125 224.438,145.625 228.438,142.125C232.438,138.625 243.5,180 246.063,204.625C248.688,229.25 246.438,286.125 246.063,306.25C245.563,333.813 253.438,406.375 278.563,421C296.063,431.187 309.625,417.563 321.063,416.062L316.375,377.5L297.875,319.875C297.875,319.875 295.938,317.375 291.125,305.187C286.313,293 286,211.937 277.188,170.687C271.563,144.375 252.938,103.937 227.813,100.187Z" style="fill:rgb(255,143,140);fill-rule:nonzero;"/>
            <path d="M598.813,130.25C595.25,135.813 595.75,156.625 595.75,156.625C595.75,156.625 540.75,173.187 514.813,187.563C488.875,201.937 460.063,223.75 451.688,258.5C443.313,293.25 454.75,317.188 454.75,317.188C454.75,317.188 437.688,309.313 423.688,304.438C411.688,300.25 400.063,297.813 400.063,297.813C400.063,297.813 399.063,270.563 396.875,262.188C394.688,253.812 389.375,244.125 389.375,233.562C389.375,223 395.688,204.063 404.063,192.5C411.563,182.125 428.563,170.687 428.563,170.687C428.563,170.687 427.688,169.437 420.938,169.187C407,168.562 388.063,183.875 379.313,206.75C370.5,229.625 374.5,264.188 374.938,279.313C375.25,289.437 375.813,299.5 375.813,299.5C375.813,299.5 358.188,301.75 345.25,305.312C332.25,308.813 310.25,324.688 310.25,324.688C310.25,324.688 303.188,319.688 298.375,312.25C293.688,305 288.313,286.063 288.313,286.063C288.313,286.063 291.313,323.875 298.375,342.75C305.438,361.688 316.875,407.187 311.125,430.75C303.188,463.313 280.063,481.063 252.75,481.5C225.438,481.938 205.313,464.063 193.5,442.813C184.688,426.875 174,388.313 174,388.313C174,388.313 169.813,403.688 170.438,417.125C171.063,430.563 177.5,462.625 204.188,484C227.813,502.938 246,502.438 260.063,501.563C286,499.938 318,474.125 325.438,441.563C332.875,409 325.125,379.25 322.938,369.563C320.75,359.875 315.875,342.75 315.875,342.75C315.875,342.75 337.875,319.438 363.813,314.625C389.75,309.813 434.188,324.313 453.563,336.625C472.938,348.938 519.875,388.688 517.188,418.188C514.5,447.688 495.75,467.875 488.313,477.438C478.5,490.063 465.562,498.875 468.5,505.125C472.688,514.063 485.687,504.25 495.313,496.75C505,489.25 517.75,473 523.938,462.875C530.125,452.75 535.375,435.75 535.375,435.75C535.375,435.75 551.188,449.5 556.5,473.125C561.75,496.75 553.875,528 564,526.25C574.125,524.5 577.563,495.875 575.438,469.5C573.312,443.625 557.375,426.313 548.625,417.313C539.875,408.313 535.437,400 535.437,400C535.437,400 519.375,359.125 499.625,342.75C474.125,321.625 468.25,274.188 480.437,252.563C496.313,224.375 518.625,208.813 544.25,203.313C580.312,195.563 598.062,196.688 614.562,195.125C629,193.75 635.812,177.375 633.625,159.313C631.437,141.25 623.062,128 613.625,123.875C606,120.5 601,126.875 598.812,130.25Z" style="fill:rgb(166,39,20);fill-rule:nonzero;"/>
            <path d="M245.75,495.875C245.75,495.875 259.188,537.688 259.188,555.688C259.188,573.688 257.625,592.875 245.75,602.75C233.938,612.563 260.938,613.75 269.125,599.563C279.938,580.75 276.813,567.562 276.813,567.562L289.438,581.75C289.438,581.75 302.563,618.625 321.125,640.562C341.375,664.437 356.938,668.875 380.063,668.875C404.313,668.875 406.875,658.187 397.063,657.437C386.625,656.687 365.875,656.312 351.313,647.062C336.813,637.812 329.75,627.375 320.188,611.687C315.875,604.625 307.875,585 307.875,585C307.875,585 327.75,593.813 335.125,585C341.438,577.5 314.313,573.063 306.688,568.875C293.813,561.813 286.75,550.375 280.75,539C275.25,528.5 264.5,495.813 264.5,495.813L245.75,495.813L245.75,495.875Z" style="fill:rgb(166,39,20);fill-rule:nonzero;"/>
            <path d="M510.5,467.688C510.5,467.688 511.938,506.375 509.625,531.938C507.25,557.438 502.313,582.375 492,598.813C485.063,609.938 472.688,619.938 469.438,626.688C465.938,633.813 473.25,638.375 480.875,634C488.5,629.625 501.688,616.688 507.875,603.813C511.125,597.063 518.75,578.313 518.75,578.313C518.75,578.313 526.688,609.125 531.625,617.938C536.625,626.75 544.25,644.938 552.125,641.375C560,637.813 551.438,623.688 549.188,617.625C546.375,610.125 539.813,592.375 536.313,577.438C532.813,562.5 530.688,511.5 530.688,498C530.688,484.5 528.938,453.938 526.313,442.813C523.688,431.688 510.5,467.688 510.5,467.688Z" style="fill:rgb(166,39,20);fill-rule:nonzero;"/>
            <path d="M184.438,143.313C187.938,150.75 199.875,148.625 214.438,138C229.75,126.813 232.438,115.875 225.188,110.812C218.375,106 205.375,110.312 196.5,117.125C186.563,124.75 180.313,134.375 184.438,143.313Z" style="fill:rgb(244,66,54);fill-rule:nonzero;"/>
        </g>
    </g>
</svg>
