<?xml version="1.0" encoding="UTF-8" standalone="no"?>
<!DOCTYPE svg PUBLIC "-//W3C//DTD SVG 1.1//EN" "http://www.w3.org/Graphics/SVG/1.1/DTD/svg11.dtd">
<svg width="100%" height="100%" viewBox="0 0 486 470" version="1.1" xmlns="http://www.w3.org/2000/svg" xmlns:xlink="http://www.w3.org/1999/xlink" xml:space="preserve" xmlns:serif="http://www.serif.com/" style="fill-rule:evenodd;clip-rule:evenodd;stroke-linejoin:round;stroke-miterlimit:2;">
    <g transform="matrix(1,0,0,1,-1148.77,-1683.95)">
        <g id="Estomac" transform="matrix(0.947152,0,0,0.947152,1147.82,1683)">
            <path d="M1,489C1,478.312 1,467.625 1.329,456.817C2.104,455.693 2.798,454.728 2.957,453.68C4.72,442.062 5.435,430.186 8.317,418.859C13.218,399.594 18.615,380.362 25.421,361.705C30.876,346.75 39.273,332.906 50.404,321.274C58.802,312.496 68.891,305.497 80.394,301.491C88.25,298.755 96.753,297.879 104.999,296.521C105.826,298.299 106.338,300.018 107.461,301.11C116.741,310.141 125.84,319.391 135.554,327.936C155.997,345.921 178.034,361.665 203.193,372.492C215.679,377.865 228.714,381.002 242.523,380.022C257.451,378.963 264.729,373.353 267.959,358.648C269.982,349.435 271.186,340 272.127,330.601C274.324,308.67 272.649,286.766 270.812,264.895C270.726,263.869 269.072,262.975 268.088,261.561C268.013,258.272 268.148,255.431 267.957,252.612C267.019,238.835 265.673,225.076 265.122,211.285C264.794,203.068 265.187,194.749 266.122,186.574C267.283,176.422 269.527,166.398 270.898,156.263C271.323,153.124 271.347,149.34 269.981,146.65C263.287,133.471 258.054,119.809 253.9,105.627C248.591,87.506 246.078,68.861 245.3,50.23C244.615,33.817 242.375,16.805 250,1C264.354,1 278.708,1 293.597,1.324C295.42,3.099 296.709,4.55 298.004,6.47C298.327,19.187 298.62,31.436 298.966,43.684C299.395,58.859 302.372,73.579 307.024,88.348C308.037,89.447 309.016,90.198 310.391,90.951C312.857,90.644 314.927,90.335 317.463,90.033C322.621,90.036 327.312,90.031 332.4,90.112C335.864,90.445 338.931,90.693 342.421,90.964C362.735,93.488 381.516,99.531 398.944,109.386C413.525,117.632 426.275,128.19 437.444,140.789C452.979,158.314 463.974,178.196 470.146,200.745C476.071,222.387 476.27,244.355 474.16,266.544C470.915,300.667 461.766,332.893 444.667,362.727C423.223,400.142 392.462,427.604 354.175,446.817C330.782,458.556 305.936,465.897 280.047,469.751C276.317,470.306 272.655,471.314 268.506,472.054C260.052,471.309 251.926,471.292 244.079,469.806C222.544,465.726 201.843,459.159 182.567,448.306C162.915,437.241 146.086,423.146 133.782,404.192C128.525,396.095 124.512,387.192 119.929,378.657C117.567,374.259 114.543,370.78 108.909,370.509C105.554,363.451 102.71,356.476 98.886,350.087C94.967,343.542 87.787,342.974 82.331,348.241C80.08,350.414 77.856,352.845 76.408,355.576C72.048,363.799 67.819,372.111 63.995,380.594C47.24,417.752 41.971,458.188 31,497C22.646,497 14.292,497 5.808,496.728C4.904,494.868 4.226,493.22 3.319,491.71C2.715,490.705 1.784,489.896 1,489Z" style="fill:rgb(247,116,116);fill-rule:nonzero;"/>
            <path d="M333.531,1C338.52,7.832 336.989,15.539 336.958,22.946C336.878,42.074 338.434,61.001 343.065,79.601C343.889,82.907 344.202,87.37 346.431,88.998C348.56,90.553 352.88,89.064 356.238,88.986C389.181,88.218 419.976,95.748 447.406,114.287C466.066,126.898 481.405,142.995 492.975,162.553C502.014,177.831 508.15,194.148 511.803,211.462C512.226,213.47 512.76,215.455 513.621,217.225C514,235.021 514,253.042 514,271.531C513.342,272.59 512.161,273.131 512.1,273.777C510.114,294.975 504.867,315.359 497.061,335.129C489.118,355.245 478.442,373.697 464.995,390.71C450.838,408.622 433.873,423.334 414.805,435.449C390.888,450.644 365.001,461.302 337.075,467.232C314.682,471.988 292.207,473.627 269.202,472.473C272.655,471.314 276.317,470.306 280.047,469.751C305.936,465.897 330.782,458.556 354.175,446.817C392.462,427.604 423.223,400.142 444.667,362.727C461.766,332.893 470.915,300.667 474.16,266.544C476.27,244.355 476.071,222.387 470.146,200.745C463.974,178.196 452.979,158.314 437.444,140.789C426.275,128.19 413.525,117.632 398.944,109.386C381.516,99.531 362.735,93.488 342.419,90.553C341.799,88.643 341.723,87.14 341.39,85.696C338.296,72.242 333.642,58.98 336.53,44.809C336.615,44.392 336.237,43.894 336.123,43.422C335.408,40.473 334.217,37.541 334.096,34.567C333.794,27.103 334.114,19.616 333.901,12.146C333.818,9.256 333.718,5.271 329.781,5.24C319.189,5.156 308.592,5.704 297.997,6.001C296.709,4.55 295.42,3.099 294.066,1.324C307.021,1 320.042,1 333.531,1Z" style="fill:rgb(229,86,86);fill-rule:nonzero;"/>
            <path d="M108.909,370.509C100.709,375.06 97.304,383.147 94.22,390.931C86.423,410.612 81.964,431.216 78.998,452.152C77.401,463.421 75.874,474.706 73.913,485.914C73.29,489.474 71.37,492.808 70.021,496.623C57.312,497 44.625,497 31.469,497C41.971,458.188 47.24,417.752 63.995,380.594C67.819,372.111 72.048,363.799 76.408,355.576C77.856,352.845 80.08,350.414 82.331,348.241C87.787,342.974 94.967,343.542 98.886,350.087C102.71,356.476 105.554,363.451 108.909,370.509Z" style="fill:rgb(229,85,85);fill-rule:nonzero;"/>
            <path d="M104.999,296.521C130.779,294.031 154.285,301.549 177.268,312.461C189.249,318.149 201.865,322.779 214.596,326.517C224.019,329.283 234.116,329.262 243.402,324.736C254.81,319.175 261.185,309.205 263.725,297.431C266.159,286.149 266.652,274.448 268.073,262.475C269.072,262.975 270.726,263.869 270.812,264.895C272.649,286.766 274.324,308.67 272.127,330.601C271.186,340 269.982,349.435 267.959,358.648C264.729,373.353 257.451,378.963 242.523,380.022C228.714,381.002 215.679,377.865 203.193,372.492C178.034,361.665 155.997,345.921 135.554,327.936C125.84,319.391 116.741,310.141 107.461,301.11C106.338,300.018 105.826,298.299 104.999,296.521Z" style="fill:rgb(229,86,86);fill-rule:nonzero;"/>
            <path d="M298.004,6.47C308.592,5.704 319.189,5.156 329.781,5.24C333.718,5.271 333.818,9.256 333.901,12.146C334.114,19.616 333.794,27.103 334.096,34.567C334.217,37.541 335.408,40.473 336.123,43.422C336.237,43.894 336.615,44.392 336.53,44.809C333.642,58.98 338.296,72.242 341.39,85.696C341.723,87.14 341.799,88.643 341.996,90.53C338.931,90.693 335.864,90.445 332.29,89.79C327.777,86.22 320.291,86.545 316.996,90.026C314.927,90.335 312.857,90.644 310.314,90.636C308.89,89.546 307.94,88.773 306.99,87.999C302.372,73.579 299.395,58.859 298.966,43.684C298.62,31.436 298.327,19.187 298.004,6.47Z" style="fill:rgb(229,85,85);fill-rule:nonzero;"/>
            <path d="M317.463,90.033C320.291,86.545 327.777,86.22 331.893,89.705C327.312,90.031 322.621,90.036 317.463,90.033Z" style="fill:rgb(229,86,86);fill-rule:nonzero;"/>
            <path d="M307.024,88.348C307.94,88.773 308.89,89.546 309.918,90.634C309.016,90.198 308.037,89.447 307.024,88.348Z" style="fill:rgb(229,86,86);fill-rule:nonzero;"/>
        </g>
    </g>
</svg>
