<?xml version="1.0" encoding="UTF-8" standalone="no"?>
<!DOCTYPE svg PUBLIC "-//W3C//DTD SVG 1.1//EN" "http://www.w3.org/Graphics/SVG/1.1/DTD/svg11.dtd">
<svg width="100%" height="100%" viewBox="0 0 470 498" version="1.1" xmlns="http://www.w3.org/2000/svg" xmlns:xlink="http://www.w3.org/1999/xlink" xml:space="preserve" xmlns:serif="http://www.serif.com/" style="fill-rule:evenodd;clip-rule:evenodd;stroke-linejoin:round;stroke-miterlimit:2;">
    <g transform="matrix(1,0,0,1,-1156.72,-1256.18)">
        <g id="Poumon" transform="matrix(0.622194,0,0,0.622194,1142.83,1256.18)">
            <path d="M428.07,255.044L428.07,14.034C428.07,6.283 421.786,0 414.036,0L385.966,0C378.214,0 371.931,6.284 371.931,14.034L371.931,255.044L331.652,295.32L344.447,361.916L390.077,316.288C395.558,310.806 404.444,310.806 409.923,316.288L456.7,363.061L468.969,295.942L428.07,255.044Z" style="fill:rgb(200,65,70);fill-rule:nonzero;"/>
            <g>
                <path d="M315.206,723.623C340.631,715.528 357.895,691.9 357.895,665.205L357.895,342.203C357.895,277.117 311.856,219.708 284.952,191.716C274.033,180.355 256.322,179.37 243.997,189.188C187.123,234.5 38.523,386.905 22.367,751.555C20.947,783.644 51.634,807.541 82.223,797.8L315.206,723.623Z" style="fill:rgb(255,115,105);fill-rule:nonzero;"/>
                <path d="M484.795,723.847C459.372,715.777 442.106,692.219 442.106,665.602L442.106,343.555C442.106,278.659 488.145,221.422 515.05,193.511C525.969,182.183 543.68,181.202 556.005,190.991C612.878,236.167 761.48,388.123 777.634,751.698C779.055,783.694 748.367,807.519 717.778,797.809L484.795,723.847Z" style="fill:rgb(255,115,105);fill-rule:nonzero;"/>
            </g>
            <g>
                <path d="M228.213,669.155C214.895,670.37 202.367,675.383 192.503,683.672L65.059,799.544C70.659,799.947 76.408,799.65 82.222,797.798L315.205,723.622C340.63,715.53 357.894,691.902 357.894,665.205L357.894,589.475C342.467,651.327 265.119,665.783 228.213,669.155Z" style="fill:rgb(255,80,80);fill-rule:nonzero;"/>
                <path d="M46.177,778.775C46.177,778.775 116.619,714.734 152.891,681.758C164.264,671.417 165.123,654.084 155.153,642.386C110.006,589.406 78.041,519.716 67.277,475.925C44.328,550.331 27.258,641.159 22.366,751.553C21.68,767.041 28.572,780.509 39.223,789.32C40.772,785.411 42.938,781.72 46.177,778.775Z" style="fill:rgb(255,80,80);fill-rule:nonzero;"/>
                <path d="M243.998,189.188C187.23,234.416 39.1,386.37 22.481,749.544C55.814,726.091 99.425,685.338 101.755,663.158C138.597,312.281 284.952,191.716 284.952,191.716C274.033,180.356 256.322,179.37 243.998,189.188Z" style="fill:rgb(255,80,80);fill-rule:nonzero;"/>
            </g>
            <path d="M67.278,475.925C44.473,549.869 27.497,640.073 22.488,749.539C55.822,726.086 99.427,685.336 101.756,663.158C104.756,634.578 108.547,607.684 112.863,582.102C90.252,543.558 74.255,504.311 67.278,475.925Z" style="fill:rgb(200,65,70);fill-rule:nonzero;"/>
            <g>
                <path d="M484.795,723.847L542.486,742.161C528.997,723.769 519.298,698.245 534.172,659.956C552.87,611.816 442.105,561.556 442.105,463.158L442.105,665.602C442.106,692.219 459.37,715.777 484.795,723.847Z" style="fill:rgb(255,80,80);fill-rule:nonzero;"/>
                <path d="M727.044,459.231C712.225,568.877 660.181,668.358 588.405,756.739L717.777,797.808C748.366,807.519 779.053,783.692 777.633,751.697C772.348,632.733 752.838,536.555 727.044,459.231Z" style="fill:rgb(255,80,80);fill-rule:nonzero;"/>
                <path d="M494.738,661.403C502.481,650.561 485.623,313.133 481.564,234.144C460.948,263.716 442.106,302.047 442.106,343.555L442.106,665.602C442.106,671.419 443.067,677.044 444.622,682.441C464.797,676.725 489.678,668.487 494.738,661.403Z" style="fill:rgb(255,80,80);fill-rule:nonzero;"/>
            </g>
            <path d="M494.738,661.403C497.02,658.208 497.155,626.533 496.122,581.577C470.506,550.458 442.106,512.995 442.106,463.158L442.106,665.602C442.106,671.419 443.067,677.044 444.622,682.441C464.797,676.725 489.678,668.487 494.738,661.403Z" style="fill:rgb(200,65,70);fill-rule:nonzero;"/>
        </g>
    </g>
</svg>
