<?xml version="1.0" encoding="UTF-8" standalone="no"?>
<!DOCTYPE svg PUBLIC "-//W3C//DTD SVG 1.1//EN" "http://www.w3.org/Graphics/SVG/1.1/DTD/svg11.dtd">
<svg width="100%" height="100%" viewBox="0 0 1388 1406" version="1.1" xmlns="http://www.w3.org/2000/svg" xmlns:xlink="http://www.w3.org/1999/xlink" xml:space="preserve" xmlns:serif="http://www.serif.com/" style="fill-rule:evenodd;clip-rule:evenodd;stroke-linejoin:round;stroke-miterlimit:2;">
    <g transform="matrix(1,0,0,1,-698,-981.201)">
        <path id="Silhouette" d="M1031,2386.69C1033.35,2251.26 1110.82,2115.97 1113,2055C1115.18,1994.03 1101,1706 1101,1706C1101,1706 1056.83,1701.59 1054,1831C1051.17,1960.41 998.131,2119.49 928,2223C857.869,2326.51 902,2386.69 902,2386.69L698,2386.69C745.336,2353.39 817.354,2222.79 820,2188C822.646,2153.21 800.92,2039.66 864,1896C927.08,1752.34 915.96,1674.59 930,1477C944.04,1279.41 927.699,1212.08 1130,1170C1332.3,1127.92 1270,981.201 1270,981.201L1513.42,981.201C1513.42,981.201 1451.12,1127.92 1653.42,1170C1855.72,1212.08 1839.38,1279.41 1853.42,1477C1867.46,1674.59 1856.34,1752.34 1919.42,1896C1982.5,2039.66 1960.78,2153.21 1963.42,2188C1966.07,2222.79 2038.09,2353.39 2085.42,2386.69L1881.42,2386.69C1881.42,2386.69 1925.55,2326.51 1855.42,2223C1785.29,2119.49 1732.25,1960.41 1729.42,1831C1726.6,1701.59 1682.42,1706 1682.42,1706C1682.42,1706 1668.25,1994.03 1670.42,2055C1672.6,2115.97 1750.07,2251.26 1752.42,2386.69L1031,2386.69Z" style="fill:white;"/>
    </g>
</svg>
