<?xml version="1.0" encoding="UTF-8" standalone="no"?>
<!DOCTYPE svg PUBLIC "-//W3C//DTD SVG 1.1//EN" "http://www.w3.org/Graphics/SVG/1.1/DTD/svg11.dtd">
<svg width="100%" height="100%" viewBox="0 0 2268 1072" version="1.1" xmlns="http://www.w3.org/2000/svg" xmlns:xlink="http://www.w3.org/1999/xlink" xml:space="preserve" xmlns:serif="http://www.serif.com/" style="fill-rule:evenodd;clip-rule:evenodd;stroke-linejoin:round;stroke-miterlimit:2;">
    <g transform="matrix(1,0,0,1,-106.299,-162.346)">
        <g transform="matrix(1.34983,0,0,2.93239,-104.274,-3294.94)">
            <g id="Neige" transform="matrix(0.740833,0,0,0.341019,77.25,1123.64)">
                <rect x="106.299" y="162.346" width="2267.72" height="1071.42" style="fill:white;"/>
                <clipPath id="_clip1">
                    <rect x="106.299" y="162.346" width="2267.72" height="1071.42"/>
                </clipPath>
                <g clip-path="url(#_clip1)">
                    <g>
                        <g transform="matrix(1.9685,0,0,1.9685,-1478.18,-787.213)">
                            <ellipse cx="1556" cy="792.957" rx="6" ry="5.957" style="fill:rgb(0,209,255);"/>
                        </g>
                        <g transform="matrix(1.9685,0,0,1.9685,-1068.18,-797.213)">
                            <ellipse cx="1556" cy="792.957" rx="6" ry="5.957" style="fill:rgb(0,209,255);"/>
                        </g>
                        <g transform="matrix(1.9685,0,0,1.9685,-1318.18,-887.213)">
                            <ellipse cx="1556" cy="792.957" rx="6" ry="5.957" style="fill:rgb(0,209,255);"/>
                        </g>
                        <g transform="matrix(1.9685,0,0,1.9685,-948.181,-837.213)">
                            <ellipse cx="1556" cy="792.957" rx="6" ry="5.957" style="fill:rgb(0,209,255);"/>
                        </g>
                        <g transform="matrix(1.9685,0,0,1.9685,-1568.18,-867.213)">
                            <ellipse cx="1556" cy="792.957" rx="6" ry="5.957" style="fill:rgb(0,209,255);"/>
                        </g>
                        <g transform="matrix(1.9685,0,0,1.9685,-1318.18,-767.213)">
                            <ellipse cx="1556" cy="792.957" rx="6" ry="5.957" style="fill:rgb(0,209,255);"/>
                        </g>
                        <g transform="matrix(1.9685,0,0,1.9685,-1058.18,-897.213)">
                            <ellipse cx="1556" cy="792.957" rx="6" ry="5.957" style="fill:rgb(0,209,255);"/>
                        </g>
                        <g transform="matrix(1.9685,0,0,1.9685,-1218.18,-847.213)">
                            <ellipse cx="1556" cy="792.957" rx="6" ry="5.957" style="fill:rgb(0,209,255);"/>
                        </g>
                        <g transform="matrix(1.9685,0,0,1.9685,-1428.18,-837.213)">
                            <ellipse cx="1556" cy="792.957" rx="6" ry="5.957" style="fill:rgb(0,209,255);"/>
                        </g>
                    </g>
                    <g transform="matrix(-1,0,0,1,3590.62,202.726)">
                        <g transform="matrix(1.9685,0,0,1.9685,-1478.18,-787.213)">
                            <ellipse cx="1556" cy="792.957" rx="6" ry="5.957" style="fill:rgb(0,209,255);"/>
                        </g>
                        <g transform="matrix(1.9685,0,0,1.9685,-1068.18,-797.213)">
                            <ellipse cx="1556" cy="792.957" rx="6" ry="5.957" style="fill:rgb(0,209,255);"/>
                        </g>
                        <g transform="matrix(1.9685,0,0,1.9685,-1318.18,-887.213)">
                            <ellipse cx="1556" cy="792.957" rx="6" ry="5.957" style="fill:rgb(0,209,255);"/>
                        </g>
                        <g transform="matrix(1.9685,0,0,1.9685,-948.181,-837.213)">
                            <ellipse cx="1556" cy="792.957" rx="6" ry="5.957" style="fill:rgb(0,209,255);"/>
                        </g>
                        <g transform="matrix(1.9685,0,0,1.9685,-1568.18,-867.213)">
                            <ellipse cx="1556" cy="792.957" rx="6" ry="5.957" style="fill:rgb(0,209,255);"/>
                        </g>
                        <g transform="matrix(1.9685,0,0,1.9685,-1318.18,-767.213)">
                            <ellipse cx="1556" cy="792.957" rx="6" ry="5.957" style="fill:rgb(0,209,255);"/>
                        </g>
                        <g transform="matrix(1.9685,0,0,1.9685,-1058.18,-897.213)">
                            <ellipse cx="1556" cy="792.957" rx="6" ry="5.957" style="fill:rgb(0,209,255);"/>
                        </g>
                        <g transform="matrix(1.9685,0,0,1.9685,-1218.18,-847.213)">
                            <ellipse cx="1556" cy="792.957" rx="6" ry="5.957" style="fill:rgb(0,209,255);"/>
                        </g>
                        <g transform="matrix(1.9685,0,0,1.9685,-1428.18,-837.213)">
                            <ellipse cx="1556" cy="792.957" rx="6" ry="5.957" style="fill:rgb(0,209,255);"/>
                        </g>
                    </g>
                    <g>
                        <g transform="matrix(-1.9685,0,0,-1.9685,3882.8,2435.66)">
                            <ellipse cx="1556" cy="792.957" rx="6" ry="5.957" style="fill:rgb(0,209,255);"/>
                        </g>
                        <g transform="matrix(-1.9685,0,0,-1.9685,3472.8,2445.66)">
                            <ellipse cx="1556" cy="792.957" rx="6" ry="5.957" style="fill:rgb(0,209,255);"/>
                        </g>
                        <g transform="matrix(-1.9685,0,0,-1.9685,3722.8,2535.66)">
                            <ellipse cx="1556" cy="792.957" rx="6" ry="5.957" style="fill:rgb(0,209,255);"/>
                        </g>
                        <g transform="matrix(-1.9685,0,0,-1.9685,3352.8,2485.66)">
                            <ellipse cx="1556" cy="792.957" rx="6" ry="5.957" style="fill:rgb(0,209,255);"/>
                        </g>
                        <g transform="matrix(-1.9685,0,0,-1.9685,3972.8,2515.66)">
                            <ellipse cx="1556" cy="792.957" rx="6" ry="5.957" style="fill:rgb(0,209,255);"/>
                        </g>
                        <g transform="matrix(-1.9685,0,0,-1.9685,3722.8,2415.66)">
                            <ellipse cx="1556" cy="792.957" rx="6" ry="5.957" style="fill:rgb(0,209,255);"/>
                        </g>
                        <g transform="matrix(-1.9685,0,0,-1.9685,3462.8,2545.66)">
                            <ellipse cx="1556" cy="792.957" rx="6" ry="5.957" style="fill:rgb(0,209,255);"/>
                        </g>
                        <g transform="matrix(-1.9685,0,0,-1.9685,3622.8,2495.66)">
                            <ellipse cx="1556" cy="792.957" rx="6" ry="5.957" style="fill:rgb(0,209,255);"/>
                        </g>
                        <g transform="matrix(-1.9685,0,0,-1.9685,3832.8,2485.66)">
                            <ellipse cx="1556" cy="792.957" rx="6" ry="5.957" style="fill:rgb(0,209,255);"/>
                        </g>
                    </g>
                    <g transform="matrix(1,0,0,-1,-1231,1915.45)">
                        <g transform="matrix(1.9685,0,0,1.9685,-1478.18,-787.213)">
                            <ellipse cx="1556" cy="792.957" rx="6" ry="5.957" style="fill:rgb(0,209,255);"/>
                        </g>
                        <g transform="matrix(1.9685,0,0,1.9685,-1068.18,-797.213)">
                            <ellipse cx="1556" cy="792.957" rx="6" ry="5.957" style="fill:rgb(0,209,255);"/>
                        </g>
                        <g transform="matrix(1.9685,0,0,1.9685,-1318.18,-887.213)">
                            <ellipse cx="1556" cy="792.957" rx="6" ry="5.957" style="fill:rgb(0,209,255);"/>
                        </g>
                        <g transform="matrix(1.9685,0,0,1.9685,-948.181,-837.213)">
                            <ellipse cx="1556" cy="792.957" rx="6" ry="5.957" style="fill:rgb(0,209,255);"/>
                        </g>
                        <g transform="matrix(1.9685,0,0,1.9685,-1568.18,-867.213)">
                            <ellipse cx="1556" cy="792.957" rx="6" ry="5.957" style="fill:rgb(0,209,255);"/>
                        </g>
                        <g transform="matrix(1.9685,0,0,1.9685,-1318.18,-767.213)">
                            <ellipse cx="1556" cy="792.957" rx="6" ry="5.957" style="fill:rgb(0,209,255);"/>
                        </g>
                        <g transform="matrix(1.9685,0,0,1.9685,-1218.18,-847.213)">
                            <ellipse cx="1556" cy="792.957" rx="6" ry="5.957" style="fill:rgb(0,209,255);"/>
                        </g>
                        <g transform="matrix(1.9685,0,0,1.9685,-1428.18,-837.213)">
                            <ellipse cx="1556" cy="792.957" rx="6" ry="5.957" style="fill:rgb(0,209,255);"/>
                        </g>
                    </g>
                    <g transform="matrix(1,0,0,-1,5.03937,1885.76)">
                        <g transform="matrix(1.9685,0,0,1.9685,-1478.18,-787.213)">
                            <ellipse cx="1556" cy="792.957" rx="6" ry="5.957" style="fill:rgb(0,209,255);"/>
                        </g>
                        <g transform="matrix(1.9685,0,0,1.9685,-1068.18,-797.213)">
                            <ellipse cx="1556" cy="792.957" rx="6" ry="5.957" style="fill:rgb(0,209,255);"/>
                        </g>
                        <g transform="matrix(1.9685,0,0,1.9685,-1318.18,-887.213)">
                            <ellipse cx="1556" cy="792.957" rx="6" ry="5.957" style="fill:rgb(0,209,255);"/>
                        </g>
                        <g transform="matrix(1.9685,0,0,1.9685,-948.181,-837.213)">
                            <ellipse cx="1556" cy="792.957" rx="6" ry="5.957" style="fill:rgb(0,209,255);"/>
                        </g>
                        <g transform="matrix(1.9685,0,0,1.9685,-1568.18,-867.213)">
                            <ellipse cx="1556" cy="792.957" rx="6" ry="5.957" style="fill:rgb(0,209,255);"/>
                        </g>
                        <g transform="matrix(1.9685,0,0,1.9685,-1318.18,-767.213)">
                            <ellipse cx="1556" cy="792.957" rx="6" ry="5.957" style="fill:rgb(0,209,255);"/>
                        </g>
                        <g transform="matrix(1.9685,0,0,1.9685,-1058.18,-897.213)">
                            <ellipse cx="1556" cy="792.957" rx="6" ry="5.957" style="fill:rgb(0,209,255);"/>
                        </g>
                        <g transform="matrix(1.9685,0,0,1.9685,-1218.18,-847.213)">
                            <ellipse cx="1556" cy="792.957" rx="6" ry="5.957" style="fill:rgb(0,209,255);"/>
                        </g>
                        <g transform="matrix(1.9685,0,0,1.9685,-1428.18,-837.213)">
                            <ellipse cx="1556" cy="792.957" rx="6" ry="5.957" style="fill:rgb(0,209,255);"/>
                        </g>
                    </g>
                    <g transform="matrix(1,0,0,1,-162.35,112.527)">
                        <path d="M1124.39,599.693L1124.39,686.386L397,686.386L397,599.693L397.001,599.025C397.371,485.246 489.844,393 603.693,393C611.861,393 619.919,393.475 627.835,394.398C662.602,329.135 731.342,284.669 810.386,284.669C895.704,284.669 969.018,336.474 1000.56,410.305C1073.25,442.194 1124.12,514.704 1124.38,599.025L1124.39,599.693Z" style="fill:rgb(222,222,222);"/>
                    </g>
                    <g transform="matrix(1,0,0,1,1049.16,-88.3311)">
                        <path d="M1124.39,599.693L1124.39,686.386L397,686.386L397,599.693L397.001,599.025C397.371,485.246 489.844,393 603.693,393C611.861,393 619.919,393.475 627.835,394.398C662.602,329.135 731.342,284.669 810.386,284.669C895.704,284.669 969.018,336.474 1000.56,410.305C1073.25,442.194 1124.12,514.704 1124.38,599.025L1124.39,599.693Z" style="fill:rgb(222,222,222);"/>
                    </g>
                </g>
            </g>
        </g>
    </g>
</svg>
