<?xml version="1.0" encoding="UTF-8" standalone="no"?>
<!DOCTYPE svg PUBLIC "-//W3C//DTD SVG 1.1//EN" "http://www.w3.org/Graphics/SVG/1.1/DTD/svg11.dtd">
<svg width="100%" height="100%" viewBox="0 0 2268 1072" version="1.1" xmlns="http://www.w3.org/2000/svg" xmlns:xlink="http://www.w3.org/1999/xlink" xml:space="preserve" xmlns:serif="http://www.serif.com/" style="fill-rule:evenodd;clip-rule:evenodd;stroke-linejoin:round;stroke-miterlimit:2;">
    <g transform="matrix(1,0,0,1,-106.299,-162.346)">
        <g transform="matrix(1.34983,0,0,2.93239,-104.274,-3294.94)">
            <g id="Nuage" transform="matrix(0.740833,0,0,0.341019,77.25,1123.64)">
                <rect x="106.299" y="162.346" width="2267.72" height="1071.42" style="fill:white;"/>
                <clipPath id="_clip1">
                    <rect x="106.299" y="162.346" width="2267.72" height="1071.42"/>
                </clipPath>
                <g clip-path="url(#_clip1)">
                    <g transform="matrix(1,0,0,0.863089,-11.2677,223.085)">
                        <rect x="74" y="162.346" width="2354.85" height="1008.65" style="fill:url(#_Linear2);"/>
                    </g>
                    <g transform="matrix(1,0,0,1,-334.268,-323.181)">
                        <path d="M1124.39,599.693L1124.39,686.386L397,686.386L397,599.693L397.001,599.025C397.371,485.246 489.844,393 603.693,393C611.861,393 619.919,393.475 627.835,394.398C662.602,329.135 731.342,284.669 810.386,284.669C895.704,284.669 969.018,336.474 1000.56,410.305C1073.25,442.194 1124.12,514.704 1124.38,599.025L1124.39,599.693Z" style="fill:rgb(65,65,65);"/>
                    </g>
                    <g transform="matrix(1,0,0,1,524,-284.669)">
                        <path d="M1124.39,599.693L1124.39,686.386L397,686.386L397,599.693L397.001,599.025C397.371,485.246 489.844,393 603.693,393C611.861,393 619.919,393.475 627.835,394.398C662.602,329.135 731.342,284.669 810.386,284.669C895.704,284.669 969.018,336.474 1000.56,410.305C1073.25,442.194 1124.12,514.704 1124.38,599.025L1124.39,599.693Z" style="fill:rgb(65,65,65);"/>
                    </g>
                    <g transform="matrix(1,0,0,1,1795,-363.669)">
                        <path d="M1124.39,599.693L1124.39,686.386L397,686.386L397,599.693L397.001,599.025C397.371,485.246 489.844,393 603.693,393C611.861,393 619.919,393.475 627.835,394.398C662.602,329.135 731.342,284.669 810.386,284.669C895.704,284.669 969.018,336.474 1000.56,410.305C1073.25,442.194 1124.12,514.704 1124.38,599.025L1124.39,599.693Z" style="fill:rgb(65,65,65);"/>
                    </g>
                    <g transform="matrix(1,0,0,1,204.343,-284.669)">
                        <path d="M1124.39,599.693L1124.39,686.386L397,686.386L397,599.693L397.001,599.025C397.371,485.246 489.844,393 603.693,393C611.861,393 619.919,393.475 627.835,394.398C662.602,329.135 731.342,284.669 810.386,284.669C895.704,284.669 969.018,336.474 1000.56,410.305C1073.25,442.194 1124.12,514.704 1124.38,599.025L1124.39,599.693Z" style="fill:rgb(100,100,100);"/>
                    </g>
                    <g transform="matrix(1,0,0,1,1114.34,-323.181)">
                        <path d="M1124.39,599.693L1124.39,686.386L397,686.386L397,599.693L397.001,599.025C397.371,485.246 489.844,393 603.693,393C611.861,393 619.919,393.475 627.835,394.398C662.602,329.135 731.342,284.669 810.386,284.669C895.704,284.669 969.018,336.474 1000.56,410.305C1073.25,442.194 1124.12,514.704 1124.38,599.025L1124.39,599.693Z" style="fill:rgb(100,100,100);"/>
                    </g>
                    <g transform="matrix(1,0,0,1,843.157,-152.888)">
                        <path d="M1124.39,599.693L1124.39,686.386L397,686.386L397,599.693L397.001,599.025C397.371,485.246 489.844,393 603.693,393C611.861,393 619.919,393.475 627.835,394.398C662.602,329.135 731.342,284.669 810.386,284.669C895.704,284.669 969.018,336.474 1000.56,410.305C1073.25,442.194 1124.12,514.704 1124.38,599.025L1124.39,599.693Z" style="fill:rgb(136,136,136);"/>
                    </g>
                    <g transform="matrix(1,0,0,1,-210.843,-76.8875)">
                        <path d="M1124.39,599.693L1124.39,686.386L397,686.386L397,599.693L397.001,599.025C397.371,485.246 489.844,393 603.693,393C611.861,393 619.919,393.475 627.835,394.398C662.602,329.135 731.342,284.669 810.386,284.669C895.704,284.669 969.018,336.474 1000.56,410.305C1073.25,442.194 1124.12,514.704 1124.38,599.025L1124.39,599.693Z" style="fill:rgb(136,136,136);"/>
                    </g>
                    <g transform="matrix(1,0,0,1,1668.16,-122.322)">
                        <path d="M1124.39,599.693L1124.39,686.386L397,686.386L397,599.693L397.001,599.025C397.371,485.246 489.844,393 603.693,393C611.861,393 619.919,393.475 627.835,394.398C662.602,329.135 731.342,284.669 810.386,284.669C895.704,284.669 969.018,336.474 1000.56,410.305C1073.25,442.194 1124.12,514.704 1124.38,599.025L1124.39,599.693Z" style="fill:rgb(136,136,136);"/>
                    </g>
                </g>
            </g>
        </g>
    </g>
    <defs>
        <linearGradient id="_Linear2" x1="0" y1="0" x2="1" y2="0" gradientUnits="userSpaceOnUse" gradientTransform="matrix(6.17622e-14,1008.65,-1008.65,6.17622e-14,1179,162.346)"><stop offset="0" style="stop-color:rgb(38,38,123);stop-opacity:1"/><stop offset="1" style="stop-color:rgb(83,83,83);stop-opacity:0"/></linearGradient>
    </defs>
</svg>
