<?xml version="1.0" encoding="UTF-8" standalone="no"?>
<!DOCTYPE svg PUBLIC "-//W3C//DTD SVG 1.1//EN" "http://www.w3.org/Graphics/SVG/1.1/DTD/svg11.dtd">
<svg width="100%" height="100%" viewBox="0 0 2268 1072" version="1.1" xmlns="http://www.w3.org/2000/svg" xmlns:xlink="http://www.w3.org/1999/xlink" xml:space="preserve" xmlns:serif="http://www.serif.com/" style="fill-rule:evenodd;clip-rule:evenodd;stroke-linejoin:round;stroke-miterlimit:2;">
    <g transform="matrix(1,0,0,1,-106.299,-162.346)">
        <g transform="matrix(1.34983,0,0,2.93239,-104.274,-3294.94)">
            <g id="Pluie" transform="matrix(0.740833,0,0,0.341019,77.25,1123.64)">
                <rect x="106.299" y="162.346" width="2267.72" height="1071.42" style="fill:none;"/>
                <clipPath id="_clip1">
                    <rect x="106.299" y="162.346" width="2267.72" height="1071.42"/>
                </clipPath>
                <g clip-path="url(#_clip1)">
                    <g transform="matrix(0.389393,-4.81793e-16,4.81793e-16,-4.32353,1407.53,3690.67)">
                        <g transform="matrix(1.9685,0,0,1.9685,-1478.18,-787.213)">
                            <ellipse cx="1556" cy="792.957" rx="6" ry="5.957" style="fill:rgb(0,209,255);"/>
                        </g>
                        <g transform="matrix(1.9685,0,0,1.9685,-1068.18,-797.213)">
                            <ellipse cx="1556" cy="792.957" rx="6" ry="5.957" style="fill:rgb(0,209,255);"/>
                        </g>
                        <g transform="matrix(1.9685,0,0,1.9685,-1318.18,-887.213)">
                            <ellipse cx="1556" cy="792.957" rx="6" ry="5.957" style="fill:rgb(0,209,255);"/>
                        </g>
                        <g transform="matrix(1.9685,0,0,1.9685,-948.181,-837.213)">
                            <ellipse cx="1556" cy="792.957" rx="6" ry="5.957" style="fill:rgb(0,209,255);"/>
                        </g>
                        <g transform="matrix(1.9685,0,0,1.9685,-1568.18,-867.213)">
                            <ellipse cx="1556" cy="792.957" rx="6" ry="5.957" style="fill:rgb(0,209,255);"/>
                        </g>
                        <g transform="matrix(1.9685,0,0,1.9685,-1318.18,-767.213)">
                            <ellipse cx="1556" cy="792.957" rx="6" ry="5.957" style="fill:rgb(0,209,255);"/>
                        </g>
                        <g transform="matrix(1.9685,0,0,1.9685,-1058.18,-897.213)">
                            <ellipse cx="1556" cy="792.957" rx="6" ry="5.957" style="fill:rgb(0,209,255);"/>
                        </g>
                        <g transform="matrix(1.9685,0,0,1.9685,-1218.18,-847.213)">
                            <ellipse cx="1556" cy="792.957" rx="6" ry="5.957" style="fill:rgb(0,209,255);"/>
                        </g>
                        <g transform="matrix(1.9685,0,0,1.9685,-1428.18,-837.213)">
                            <ellipse cx="1556" cy="792.957" rx="6" ry="5.957" style="fill:rgb(0,209,255);"/>
                        </g>
                    </g>
                    <g transform="matrix(0.389393,-4.81793e-16,4.81793e-16,-4.32353,-387.47,4126.9)">
                        <g transform="matrix(1.9685,0,0,1.9685,-1478.18,-787.213)">
                            <ellipse cx="1556" cy="792.957" rx="6" ry="5.957" style="fill:rgb(0,209,255);"/>
                        </g>
                        <g transform="matrix(1.9685,0,0,1.9685,-1068.18,-797.213)">
                            <ellipse cx="1556" cy="792.957" rx="6" ry="5.957" style="fill:rgb(0,209,255);"/>
                        </g>
                        <g transform="matrix(1.9685,0,0,1.9685,-1318.18,-887.213)">
                            <ellipse cx="1556" cy="792.957" rx="6" ry="5.957" style="fill:rgb(0,209,255);"/>
                        </g>
                        <g transform="matrix(1.9685,0,0,1.9685,-948.181,-837.213)">
                            <ellipse cx="1556" cy="792.957" rx="6" ry="5.957" style="fill:rgb(0,209,255);"/>
                        </g>
                        <g transform="matrix(1.9685,0,0,1.9685,-1568.18,-867.213)">
                            <ellipse cx="1556" cy="792.957" rx="6" ry="5.957" style="fill:rgb(0,209,255);"/>
                        </g>
                        <g transform="matrix(1.9685,0,0,1.9685,-1318.18,-767.213)">
                            <ellipse cx="1556" cy="792.957" rx="6" ry="5.957" style="fill:rgb(0,209,255);"/>
                        </g>
                        <g transform="matrix(1.9685,0,0,1.9685,-1058.18,-897.213)">
                            <ellipse cx="1556" cy="792.957" rx="6" ry="5.957" style="fill:rgb(0,209,255);"/>
                        </g>
                        <g transform="matrix(1.9685,0,0,1.9685,-1218.18,-847.213)">
                            <ellipse cx="1556" cy="792.957" rx="6" ry="5.957" style="fill:rgb(0,209,255);"/>
                        </g>
                        <g transform="matrix(1.9685,0,0,1.9685,-1428.18,-837.213)">
                            <ellipse cx="1556" cy="792.957" rx="6" ry="5.957" style="fill:rgb(0,209,255);"/>
                        </g>
                    </g>
                    <g transform="matrix(0.389393,-4.81793e-16,4.81793e-16,-4.32353,148.53,3517)">
                        <g transform="matrix(1.9685,0,0,1.9685,-1478.18,-787.213)">
                            <ellipse cx="1556" cy="792.957" rx="6" ry="5.957" style="fill:rgb(0,209,255);"/>
                        </g>
                        <g transform="matrix(1.9685,0,0,1.9685,-1068.18,-797.213)">
                            <ellipse cx="1556" cy="792.957" rx="6" ry="5.957" style="fill:rgb(0,209,255);"/>
                        </g>
                        <g transform="matrix(1.9685,0,0,1.9685,-1318.18,-887.213)">
                            <ellipse cx="1556" cy="792.957" rx="6" ry="5.957" style="fill:rgb(0,209,255);"/>
                        </g>
                        <g transform="matrix(1.9685,0,0,1.9685,-948.181,-837.213)">
                            <ellipse cx="1556" cy="792.957" rx="6" ry="5.957" style="fill:rgb(0,209,255);"/>
                        </g>
                        <g transform="matrix(1.9685,0,0,1.9685,-1568.18,-867.213)">
                            <ellipse cx="1556" cy="792.957" rx="6" ry="5.957" style="fill:rgb(0,209,255);"/>
                        </g>
                        <g transform="matrix(1.9685,0,0,1.9685,-1058.18,-897.213)">
                            <ellipse cx="1556" cy="792.957" rx="6" ry="5.957" style="fill:rgb(0,209,255);"/>
                        </g>
                        <g transform="matrix(1.9685,0,0,1.9685,-1218.18,-847.213)">
                            <ellipse cx="1556" cy="792.957" rx="6" ry="5.957" style="fill:rgb(0,209,255);"/>
                        </g>
                        <g transform="matrix(1.9685,0,0,1.9685,-1428.18,-837.213)">
                            <ellipse cx="1556" cy="792.957" rx="6" ry="5.957" style="fill:rgb(0,209,255);"/>
                        </g>
                    </g>
                    <g transform="matrix(0.389393,-4.81793e-16,4.81793e-16,-4.32353,625.53,4052.71)">
                        <g transform="matrix(1.9685,0,0,1.9685,-1478.18,-787.213)">
                            <ellipse cx="1556" cy="792.957" rx="6" ry="5.957" style="fill:rgb(0,209,255);"/>
                        </g>
                        <g transform="matrix(1.9685,0,0,1.9685,-1068.18,-797.213)">
                            <ellipse cx="1556" cy="792.957" rx="6" ry="5.957" style="fill:rgb(0,209,255);"/>
                        </g>
                        <g transform="matrix(1.9685,0,0,1.9685,-1318.18,-887.213)">
                            <ellipse cx="1556" cy="792.957" rx="6" ry="5.957" style="fill:rgb(0,209,255);"/>
                        </g>
                        <g transform="matrix(1.9685,0,0,1.9685,-948.181,-837.213)">
                            <ellipse cx="1556" cy="792.957" rx="6" ry="5.957" style="fill:rgb(0,209,255);"/>
                        </g>
                        <g transform="matrix(1.9685,0,0,1.9685,-1568.18,-867.213)">
                            <ellipse cx="1556" cy="792.957" rx="6" ry="5.957" style="fill:rgb(0,209,255);"/>
                        </g>
                        <g transform="matrix(1.9685,0,0,1.9685,-1318.18,-767.213)">
                            <ellipse cx="1556" cy="792.957" rx="6" ry="5.957" style="fill:rgb(0,209,255);"/>
                        </g>
                        <g transform="matrix(1.9685,0,0,1.9685,-1058.18,-897.213)">
                            <ellipse cx="1556" cy="792.957" rx="6" ry="5.957" style="fill:rgb(0,209,255);"/>
                        </g>
                        <g transform="matrix(1.9685,0,0,1.9685,-1218.18,-847.213)">
                            <ellipse cx="1556" cy="792.957" rx="6" ry="5.957" style="fill:rgb(0,209,255);"/>
                        </g>
                        <g transform="matrix(1.9685,0,0,1.9685,-1428.18,-837.213)">
                            <ellipse cx="1556" cy="792.957" rx="6" ry="5.957" style="fill:rgb(0,209,255);"/>
                        </g>
                    </g>
                    <g transform="matrix(0.389393,-4.81793e-16,4.81793e-16,-4.32353,876.152,3644.74)">
                        <g transform="matrix(1.9685,0,0,1.9685,-1478.18,-787.213)">
                            <ellipse cx="1556" cy="792.957" rx="6" ry="5.957" style="fill:rgb(0,209,255);"/>
                        </g>
                        <g transform="matrix(1.9685,0,0,1.9685,-1068.18,-797.213)">
                            <ellipse cx="1556" cy="792.957" rx="6" ry="5.957" style="fill:rgb(0,209,255);"/>
                        </g>
                        <g transform="matrix(1.9685,0,0,1.9685,-1318.18,-887.213)">
                            <ellipse cx="1556" cy="792.957" rx="6" ry="5.957" style="fill:rgb(0,209,255);"/>
                        </g>
                        <g transform="matrix(1.9685,0,0,1.9685,-948.181,-837.213)">
                            <ellipse cx="1556" cy="792.957" rx="6" ry="5.957" style="fill:rgb(0,209,255);"/>
                        </g>
                        <g transform="matrix(1.9685,0,0,1.9685,-1568.18,-867.213)">
                            <ellipse cx="1556" cy="792.957" rx="6" ry="5.957" style="fill:rgb(0,209,255);"/>
                        </g>
                        <g transform="matrix(1.9685,0,0,1.9685,-1318.18,-767.213)">
                            <ellipse cx="1556" cy="792.957" rx="6" ry="5.957" style="fill:rgb(0,209,255);"/>
                        </g>
                        <g transform="matrix(1.9685,0,0,1.9685,-1058.18,-897.213)">
                            <ellipse cx="1556" cy="792.957" rx="6" ry="5.957" style="fill:rgb(0,209,255);"/>
                        </g>
                        <g transform="matrix(1.9685,0,0,1.9685,-1218.18,-847.213)">
                            <ellipse cx="1556" cy="792.957" rx="6" ry="5.957" style="fill:rgb(0,209,255);"/>
                        </g>
                        <g transform="matrix(1.9685,0,0,1.9685,-1428.18,-837.213)">
                            <ellipse cx="1556" cy="792.957" rx="6" ry="5.957" style="fill:rgb(0,209,255);"/>
                        </g>
                    </g>
                    <g transform="matrix(0.389393,-4.81793e-16,4.81793e-16,-4.32353,537.376,3463.44)">
                        <g transform="matrix(1.9685,0,0,1.9685,-1478.18,-787.213)">
                            <ellipse cx="1556" cy="792.957" rx="6" ry="5.957" style="fill:rgb(0,209,255);"/>
                        </g>
                        <g transform="matrix(1.9685,0,0,1.9685,-1068.18,-797.213)">
                            <ellipse cx="1556" cy="792.957" rx="6" ry="5.957" style="fill:rgb(0,209,255);"/>
                        </g>
                        <g transform="matrix(1.9685,0,0,1.9685,-1318.18,-887.213)">
                            <ellipse cx="1556" cy="792.957" rx="6" ry="5.957" style="fill:rgb(0,209,255);"/>
                        </g>
                        <g transform="matrix(1.9685,0,0,1.9685,-948.181,-837.213)">
                            <ellipse cx="1556" cy="792.957" rx="6" ry="5.957" style="fill:rgb(0,209,255);"/>
                        </g>
                        <g transform="matrix(1.9685,0,0,1.9685,-1568.18,-867.213)">
                            <ellipse cx="1556" cy="792.957" rx="6" ry="5.957" style="fill:rgb(0,209,255);"/>
                        </g>
                        <g transform="matrix(1.9685,0,0,1.9685,-1058.18,-897.213)">
                            <ellipse cx="1556" cy="792.957" rx="6" ry="5.957" style="fill:rgb(0,209,255);"/>
                        </g>
                        <g transform="matrix(1.9685,0,0,1.9685,-1218.18,-847.213)">
                            <ellipse cx="1556" cy="792.957" rx="6" ry="5.957" style="fill:rgb(0,209,255);"/>
                        </g>
                        <g transform="matrix(1.9685,0,0,1.9685,-1428.18,-837.213)">
                            <ellipse cx="1556" cy="792.957" rx="6" ry="5.957" style="fill:rgb(0,209,255);"/>
                        </g>
                    </g>
                    <g transform="matrix(0.389393,-4.81793e-16,4.81793e-16,-4.32353,-136.848,3720.98)">
                        <g transform="matrix(1.9685,0,0,1.9685,-1478.18,-787.213)">
                            <ellipse cx="1556" cy="792.957" rx="6" ry="5.957" style="fill:rgb(0,209,255);"/>
                        </g>
                        <g transform="matrix(1.9685,0,0,1.9685,-1068.18,-797.213)">
                            <ellipse cx="1556" cy="792.957" rx="6" ry="5.957" style="fill:rgb(0,209,255);"/>
                        </g>
                        <g transform="matrix(1.9685,0,0,1.9685,-1318.18,-887.213)">
                            <ellipse cx="1556" cy="792.957" rx="6" ry="5.957" style="fill:rgb(0,209,255);"/>
                        </g>
                        <g transform="matrix(1.9685,0,0,1.9685,-948.181,-837.213)">
                            <ellipse cx="1556" cy="792.957" rx="6" ry="5.957" style="fill:rgb(0,209,255);"/>
                        </g>
                        <g transform="matrix(1.9685,0,0,1.9685,-1568.18,-867.213)">
                            <ellipse cx="1556" cy="792.957" rx="6" ry="5.957" style="fill:rgb(0,209,255);"/>
                        </g>
                        <g transform="matrix(1.9685,0,0,1.9685,-1318.18,-767.213)">
                            <ellipse cx="1556" cy="792.957" rx="6" ry="5.957" style="fill:rgb(0,209,255);"/>
                        </g>
                        <g transform="matrix(1.9685,0,0,1.9685,-1058.18,-897.213)">
                            <ellipse cx="1556" cy="792.957" rx="6" ry="5.957" style="fill:rgb(0,209,255);"/>
                        </g>
                        <g transform="matrix(1.9685,0,0,1.9685,-1218.18,-847.213)">
                            <ellipse cx="1556" cy="792.957" rx="6" ry="5.957" style="fill:rgb(0,209,255);"/>
                        </g>
                        <g transform="matrix(1.9685,0,0,1.9685,-1428.18,-837.213)">
                            <ellipse cx="1556" cy="792.957" rx="6" ry="5.957" style="fill:rgb(0,209,255);"/>
                        </g>
                    </g>
                    <g transform="matrix(0.389393,-4.81793e-16,4.81793e-16,-4.32353,374.908,3936.67)">
                        <g transform="matrix(1.9685,0,0,1.9685,-1478.18,-787.213)">
                            <ellipse cx="1556" cy="792.957" rx="6" ry="5.957" style="fill:rgb(0,209,255);"/>
                        </g>
                        <g transform="matrix(1.9685,0,0,1.9685,-1068.18,-797.213)">
                            <ellipse cx="1556" cy="792.957" rx="6" ry="5.957" style="fill:rgb(0,209,255);"/>
                        </g>
                        <g transform="matrix(1.9685,0,0,1.9685,-1318.18,-887.213)">
                            <ellipse cx="1556" cy="792.957" rx="6" ry="5.957" style="fill:rgb(0,209,255);"/>
                        </g>
                        <g transform="matrix(1.9685,0,0,1.9685,-948.181,-837.213)">
                            <ellipse cx="1556" cy="792.957" rx="6" ry="5.957" style="fill:rgb(0,209,255);"/>
                        </g>
                        <g transform="matrix(1.9685,0,0,1.9685,-1568.18,-867.213)">
                            <ellipse cx="1556" cy="792.957" rx="6" ry="5.957" style="fill:rgb(0,209,255);"/>
                        </g>
                        <g transform="matrix(1.9685,0,0,1.9685,-1318.18,-767.213)">
                            <ellipse cx="1556" cy="792.957" rx="6" ry="5.957" style="fill:rgb(0,209,255);"/>
                        </g>
                        <g transform="matrix(1.9685,0,0,1.9685,-1058.18,-897.213)">
                            <ellipse cx="1556" cy="792.957" rx="6" ry="5.957" style="fill:rgb(0,209,255);"/>
                        </g>
                        <g transform="matrix(1.9685,0,0,1.9685,-1218.18,-847.213)">
                            <ellipse cx="1556" cy="792.957" rx="6" ry="5.957" style="fill:rgb(0,209,255);"/>
                        </g>
                        <g transform="matrix(1.9685,0,0,1.9685,-1428.18,-837.213)">
                            <ellipse cx="1556" cy="792.957" rx="6" ry="5.957" style="fill:rgb(0,209,255);"/>
                        </g>
                    </g>
                    <g transform="matrix(0.389393,-4.81793e-16,4.81793e-16,-4.32353,-450.47,3389.26)">
                        <g transform="matrix(1.9685,0,0,1.9685,-1318.18,-887.213)">
                            <ellipse cx="1556" cy="792.957" rx="6" ry="5.957" style="fill:rgb(0,209,255);"/>
                        </g>
                        <g transform="matrix(1.9685,0,0,1.9685,-948.181,-837.213)">
                            <ellipse cx="1556" cy="792.957" rx="6" ry="5.957" style="fill:rgb(0,209,255);"/>
                        </g>
                        <g transform="matrix(1.9685,0,0,1.9685,-1568.18,-867.213)">
                            <ellipse cx="1556" cy="792.957" rx="6" ry="5.957" style="fill:rgb(0,209,255);"/>
                        </g>
                        <g transform="matrix(1.9685,0,0,1.9685,-1058.18,-897.213)">
                            <ellipse cx="1556" cy="792.957" rx="6" ry="5.957" style="fill:rgb(0,209,255);"/>
                        </g>
                        <g transform="matrix(1.9685,0,0,1.9685,-1218.18,-847.213)">
                            <ellipse cx="1556" cy="792.957" rx="6" ry="5.957" style="fill:rgb(0,209,255);"/>
                        </g>
                        <g transform="matrix(1.9685,0,0,1.9685,-1428.18,-837.213)">
                            <ellipse cx="1556" cy="792.957" rx="6" ry="5.957" style="fill:rgb(0,209,255);"/>
                        </g>
                    </g>
                    <g transform="matrix(0.389393,-4.81793e-16,4.81793e-16,-4.32353,1126.77,4052.71)">
                        <g transform="matrix(1.9685,0,0,1.9685,-1478.18,-787.213)">
                            <ellipse cx="1556" cy="792.957" rx="6" ry="5.957" style="fill:rgb(0,209,255);"/>
                        </g>
                        <g transform="matrix(1.9685,0,0,1.9685,-1068.18,-797.213)">
                            <ellipse cx="1556" cy="792.957" rx="6" ry="5.957" style="fill:rgb(0,209,255);"/>
                        </g>
                        <g transform="matrix(1.9685,0,0,1.9685,-1318.18,-887.213)">
                            <ellipse cx="1556" cy="792.957" rx="6" ry="5.957" style="fill:rgb(0,209,255);"/>
                        </g>
                        <g transform="matrix(1.9685,0,0,1.9685,-948.181,-837.213)">
                            <ellipse cx="1556" cy="792.957" rx="6" ry="5.957" style="fill:rgb(0,209,255);"/>
                        </g>
                        <g transform="matrix(1.9685,0,0,1.9685,-1568.18,-867.213)">
                            <ellipse cx="1556" cy="792.957" rx="6" ry="5.957" style="fill:rgb(0,209,255);"/>
                        </g>
                        <g transform="matrix(1.9685,0,0,1.9685,-1318.18,-767.213)">
                            <ellipse cx="1556" cy="792.957" rx="6" ry="5.957" style="fill:rgb(0,209,255);"/>
                        </g>
                        <g transform="matrix(1.9685,0,0,1.9685,-1058.18,-897.213)">
                            <ellipse cx="1556" cy="792.957" rx="6" ry="5.957" style="fill:rgb(0,209,255);"/>
                        </g>
                        <g transform="matrix(1.9685,0,0,1.9685,-1218.18,-847.213)">
                            <ellipse cx="1556" cy="792.957" rx="6" ry="5.957" style="fill:rgb(0,209,255);"/>
                        </g>
                        <g transform="matrix(1.9685,0,0,1.9685,-1428.18,-837.213)">
                            <ellipse cx="1556" cy="792.957" rx="6" ry="5.957" style="fill:rgb(0,209,255);"/>
                        </g>
                    </g>
                    <g transform="matrix(0.389393,-4.81793e-16,4.81793e-16,-4.32353,1126.77,3273.22)">
                        <g transform="matrix(1.9685,0,0,1.9685,-1318.18,-887.213)">
                            <ellipse cx="1556" cy="792.957" rx="6" ry="5.957" style="fill:rgb(0,209,255);"/>
                        </g>
                        <g transform="matrix(1.9685,0,0,1.9685,-948.181,-837.213)">
                            <ellipse cx="1556" cy="792.957" rx="6" ry="5.957" style="fill:rgb(0,209,255);"/>
                        </g>
                        <g transform="matrix(1.9685,0,0,1.9685,-1568.18,-867.213)">
                            <ellipse cx="1556" cy="792.957" rx="6" ry="5.957" style="fill:rgb(0,209,255);"/>
                        </g>
                        <g transform="matrix(1.9685,0,0,1.9685,-1058.18,-897.213)">
                            <ellipse cx="1556" cy="792.957" rx="6" ry="5.957" style="fill:rgb(0,209,255);"/>
                        </g>
                        <g transform="matrix(1.9685,0,0,1.9685,-1218.18,-847.213)">
                            <ellipse cx="1556" cy="792.957" rx="6" ry="5.957" style="fill:rgb(0,209,255);"/>
                        </g>
                        <g transform="matrix(1.9685,0,0,1.9685,-1428.18,-837.213)">
                            <ellipse cx="1556" cy="792.957" rx="6" ry="5.957" style="fill:rgb(0,209,255);"/>
                        </g>
                    </g>
                    <g transform="matrix(0.389393,-4.81793e-16,4.81793e-16,-4.32353,124.286,4052.71)">
                        <g transform="matrix(1.9685,0,0,1.9685,-1478.18,-787.213)">
                            <ellipse cx="1556" cy="792.957" rx="6" ry="5.957" style="fill:rgb(0,209,255);"/>
                        </g>
                        <g transform="matrix(1.9685,0,0,1.9685,-1068.18,-797.213)">
                            <ellipse cx="1556" cy="792.957" rx="6" ry="5.957" style="fill:rgb(0,209,255);"/>
                        </g>
                        <g transform="matrix(1.9685,0,0,1.9685,-1318.18,-887.213)">
                            <ellipse cx="1556" cy="792.957" rx="6" ry="5.957" style="fill:rgb(0,209,255);"/>
                        </g>
                        <g transform="matrix(1.9685,0,0,1.9685,-948.181,-837.213)">
                            <ellipse cx="1556" cy="792.957" rx="6" ry="5.957" style="fill:rgb(0,209,255);"/>
                        </g>
                        <g transform="matrix(1.9685,0,0,1.9685,-1568.18,-867.213)">
                            <ellipse cx="1556" cy="792.957" rx="6" ry="5.957" style="fill:rgb(0,209,255);"/>
                        </g>
                        <g transform="matrix(1.9685,0,0,1.9685,-1318.18,-767.213)">
                            <ellipse cx="1556" cy="792.957" rx="6" ry="5.957" style="fill:rgb(0,209,255);"/>
                        </g>
                        <g transform="matrix(1.9685,0,0,1.9685,-1058.18,-897.213)">
                            <ellipse cx="1556" cy="792.957" rx="6" ry="5.957" style="fill:rgb(0,209,255);"/>
                        </g>
                        <g transform="matrix(1.9685,0,0,1.9685,-1218.18,-847.213)">
                            <ellipse cx="1556" cy="792.957" rx="6" ry="5.957" style="fill:rgb(0,209,255);"/>
                        </g>
                        <g transform="matrix(1.9685,0,0,1.9685,-1428.18,-837.213)">
                            <ellipse cx="1556" cy="792.957" rx="6" ry="5.957" style="fill:rgb(0,209,255);"/>
                        </g>
                    </g>
                </g>
            </g>
        </g>
    </g>
</svg>
