<?xml version="1.0" encoding="UTF-8" standalone="no"?>
<!DOCTYPE svg PUBLIC "-//W3C//DTD SVG 1.1//EN" "http://www.w3.org/Graphics/SVG/1.1/DTD/svg11.dtd">
<svg width="100%" height="100%" viewBox="0 0 2268 1072" version="1.1" xmlns="http://www.w3.org/2000/svg" xmlns:xlink="http://www.w3.org/1999/xlink" xml:space="preserve" xmlns:serif="http://www.serif.com/" style="fill-rule:evenodd;clip-rule:evenodd;stroke-linecap:round;stroke-linejoin:round;stroke-miterlimit:1.5;">
    <g transform="matrix(1,0,0,1,-106.299,-162.346)">
        <g transform="matrix(1.34983,0,0,2.93239,-104.274,-3294.94)">
            <g id="Soleil" transform="matrix(0.740833,0,0,0.341019,77.25,1123.64)">
                <rect x="106.299" y="162.346" width="2267.72" height="1071.42" style="fill:none;"/>
                <clipPath id="_clip1">
                    <rect x="106.299" y="162.346" width="2267.72" height="1071.42"/>
                </clipPath>
                <g clip-path="url(#_clip1)">
                    <g transform="matrix(0.390835,0,0,0.406117,-449.347,-117.091)">
                        <ellipse cx="2531.5" cy="688.071" rx="755.5" ry="727.071" style="fill:rgb(255,251,134);"/>
                    </g>
                    <path d="M540.051,540L540.051,749" style="fill:none;stroke:rgb(255,251,134);stroke-width:62.5px;"/>
                    <g transform="matrix(6.12323e-17,-1,1,6.12323e-17,397.551,702.398)">
                        <path d="M540.051,540L540.051,749" style="fill:none;stroke:rgb(255,251,134);stroke-width:62.5px;"/>
                    </g>
                    <g transform="matrix(6.12323e-17,-1,1,6.12323e-17,-598.449,702.398)">
                        <path d="M540.051,540L540.051,749" style="fill:none;stroke:rgb(255,251,134);stroke-width:62.5px;"/>
                    </g>
                    <g transform="matrix(-0.707107,-0.707107,0.707107,-0.707107,106.335,1372)">
                        <path d="M540.051,540L540.051,749" style="fill:none;stroke:rgb(255,251,134);stroke-width:62.5px;"/>
                    </g>
                    <g transform="matrix(0.707107,-0.707107,-0.707107,-0.707107,1014.05,1372)">
                        <path d="M540.051,540L540.051,749" style="fill:none;stroke:rgb(255,251,134);stroke-width:62.5px;"/>
                    </g>
                </g>
            </g>
        </g>
    </g>
</svg>
